<svg width="874" height="300" viewBox="0 0 874 300" fill="none" xmlns="http://www.w3.org/2000/svg">
<rect width="874" height="300" fill="#FAFAFA"/>
<path d="M180.788 203.468H179.636V202.592H180.908L181.136 200.9H179.96V200.024H181.268L181.616 197.504H182.516L182.156 200.024H183.572L183.92 197.504H184.82L184.46 200.024H185.54V200.9H184.34L184.1 202.592H185.216V203.468H183.992L183.632 206H182.732L183.092 203.468H181.676L181.316 206H180.428L180.788 203.468ZM181.796 202.592H183.212L183.44 200.9H182.036L181.796 202.592Z" fill="#828282"/>
<path d="M188.591 201.08H188.963C189.203 201.08 189.435 201.06 189.659 201.02C189.891 200.972 190.095 200.896 190.271 200.792C190.447 200.68 190.587 200.532 190.691 200.348C190.803 200.164 190.859 199.936 190.859 199.664C190.859 199.448 190.819 199.256 190.739 199.088C190.659 198.912 190.547 198.764 190.403 198.644C190.267 198.524 190.107 198.432 189.923 198.368C189.747 198.296 189.559 198.26 189.359 198.26C188.999 198.26 188.691 198.352 188.435 198.536C188.187 198.72 187.999 198.976 187.871 199.304L186.815 198.932C187.023 198.42 187.355 198.02 187.811 197.732C188.275 197.436 188.807 197.288 189.407 197.288C189.759 197.288 190.091 197.34 190.403 197.444C190.723 197.54 191.003 197.684 191.243 197.876C191.483 198.068 191.671 198.308 191.807 198.596C191.951 198.884 192.023 199.216 192.023 199.592C192.023 199.832 191.983 200.056 191.903 200.264C191.831 200.472 191.727 200.66 191.591 200.828C191.463 200.996 191.307 201.14 191.123 201.26C190.939 201.38 190.739 201.468 190.523 201.524V201.548C190.771 201.596 190.999 201.68 191.207 201.8C191.423 201.92 191.607 202.072 191.759 202.256C191.911 202.432 192.031 202.636 192.119 202.868C192.207 203.1 192.251 203.352 192.251 203.624C192.251 204.048 192.171 204.424 192.011 204.752C191.851 205.072 191.639 205.34 191.375 205.556C191.111 205.772 190.807 205.936 190.463 206.048C190.119 206.16 189.767 206.216 189.407 206.216C188.735 206.216 188.143 206.064 187.631 205.76C187.119 205.456 186.747 204.984 186.515 204.344L187.595 203.984C187.723 204.352 187.939 204.652 188.243 204.884C188.555 205.116 188.935 205.232 189.383 205.232C189.599 205.232 189.807 205.2 190.007 205.136C190.215 205.064 190.399 204.96 190.559 204.824C190.719 204.688 190.847 204.52 190.943 204.32C191.039 204.12 191.087 203.884 191.087 203.612C191.087 203.316 191.023 203.068 190.895 202.868C190.767 202.668 190.599 202.508 190.391 202.388C190.191 202.26 189.963 202.172 189.707 202.124C189.451 202.068 189.199 202.04 188.951 202.04H188.591V201.08Z" fill="#828282"/>
<path d="M195.728 201.08H196.1C196.34 201.08 196.572 201.06 196.796 201.02C197.028 200.972 197.232 200.896 197.408 200.792C197.584 200.68 197.724 200.532 197.828 200.348C197.94 200.164 197.996 199.936 197.996 199.664C197.996 199.448 197.956 199.256 197.876 199.088C197.796 198.912 197.684 198.764 197.54 198.644C197.404 198.524 197.244 198.432 197.06 198.368C196.884 198.296 196.696 198.26 196.496 198.26C196.136 198.26 195.828 198.352 195.572 198.536C195.324 198.72 195.136 198.976 195.008 199.304L193.952 198.932C194.16 198.42 194.492 198.02 194.948 197.732C195.412 197.436 195.944 197.288 196.544 197.288C196.896 197.288 197.228 197.34 197.54 197.444C197.86 197.54 198.14 197.684 198.38 197.876C198.62 198.068 198.808 198.308 198.944 198.596C199.088 198.884 199.16 199.216 199.16 199.592C199.16 199.832 199.12 200.056 199.04 200.264C198.968 200.472 198.864 200.66 198.728 200.828C198.6 200.996 198.444 201.14 198.26 201.26C198.076 201.38 197.876 201.468 197.66 201.524V201.548C197.908 201.596 198.136 201.68 198.344 201.8C198.56 201.92 198.744 202.072 198.896 202.256C199.048 202.432 199.168 202.636 199.256 202.868C199.344 203.1 199.388 203.352 199.388 203.624C199.388 204.048 199.308 204.424 199.148 204.752C198.988 205.072 198.776 205.34 198.512 205.556C198.248 205.772 197.944 205.936 197.6 206.048C197.256 206.16 196.904 206.216 196.544 206.216C195.872 206.216 195.28 206.064 194.768 205.76C194.256 205.456 193.884 204.984 193.652 204.344L194.732 203.984C194.86 204.352 195.076 204.652 195.38 204.884C195.692 205.116 196.072 205.232 196.52 205.232C196.736 205.232 196.944 205.2 197.144 205.136C197.352 205.064 197.536 204.96 197.696 204.824C197.856 204.688 197.984 204.52 198.08 204.32C198.176 204.12 198.224 203.884 198.224 203.612C198.224 203.316 198.16 203.068 198.032 202.868C197.904 202.668 197.736 202.508 197.528 202.388C197.328 202.26 197.1 202.172 196.844 202.124C196.588 202.068 196.336 202.04 196.088 202.04H195.728V201.08Z" fill="#828282"/>
<path d="M202.865 201.08H203.237C203.477 201.08 203.709 201.06 203.933 201.02C204.165 200.972 204.369 200.896 204.545 200.792C204.721 200.68 204.861 200.532 204.965 200.348C205.077 200.164 205.133 199.936 205.133 199.664C205.133 199.448 205.093 199.256 205.013 199.088C204.933 198.912 204.821 198.764 204.677 198.644C204.541 198.524 204.381 198.432 204.197 198.368C204.021 198.296 203.833 198.26 203.633 198.26C203.273 198.26 202.965 198.352 202.709 198.536C202.461 198.72 202.273 198.976 202.145 199.304L201.089 198.932C201.297 198.42 201.629 198.02 202.085 197.732C202.549 197.436 203.081 197.288 203.681 197.288C204.033 197.288 204.365 197.34 204.677 197.444C204.997 197.54 205.277 197.684 205.517 197.876C205.757 198.068 205.945 198.308 206.081 198.596C206.225 198.884 206.297 199.216 206.297 199.592C206.297 199.832 206.257 200.056 206.177 200.264C206.105 200.472 206.001 200.66 205.865 200.828C205.737 200.996 205.581 201.14 205.397 201.26C205.213 201.38 205.013 201.468 204.797 201.524V201.548C205.045 201.596 205.273 201.68 205.481 201.8C205.697 201.92 205.881 202.072 206.033 202.256C206.185 202.432 206.305 202.636 206.393 202.868C206.481 203.1 206.525 203.352 206.525 203.624C206.525 204.048 206.445 204.424 206.285 204.752C206.125 205.072 205.913 205.34 205.649 205.556C205.385 205.772 205.081 205.936 204.737 206.048C204.393 206.16 204.041 206.216 203.681 206.216C203.009 206.216 202.417 206.064 201.905 205.76C201.393 205.456 201.021 204.984 200.789 204.344L201.869 203.984C201.997 204.352 202.213 204.652 202.517 204.884C202.829 205.116 203.209 205.232 203.657 205.232C203.873 205.232 204.081 205.2 204.281 205.136C204.489 205.064 204.673 204.96 204.833 204.824C204.993 204.688 205.121 204.52 205.217 204.32C205.313 204.12 205.361 203.884 205.361 203.612C205.361 203.316 205.297 203.068 205.169 202.868C205.041 202.668 204.873 202.508 204.665 202.388C204.465 202.26 204.237 202.172 203.981 202.124C203.725 202.068 203.473 202.04 203.225 202.04H202.865V201.08Z" fill="#828282"/>
<path d="M210.001 201.08H210.373C210.613 201.08 210.845 201.06 211.069 201.02C211.301 200.972 211.505 200.896 211.681 200.792C211.857 200.68 211.997 200.532 212.101 200.348C212.213 200.164 212.269 199.936 212.269 199.664C212.269 199.448 212.229 199.256 212.149 199.088C212.069 198.912 211.957 198.764 211.813 198.644C211.677 198.524 211.517 198.432 211.333 198.368C211.157 198.296 210.969 198.26 210.769 198.26C210.409 198.26 210.101 198.352 209.845 198.536C209.597 198.72 209.409 198.976 209.281 199.304L208.225 198.932C208.433 198.42 208.765 198.02 209.221 197.732C209.685 197.436 210.217 197.288 210.817 197.288C211.169 197.288 211.501 197.34 211.813 197.444C212.133 197.54 212.413 197.684 212.653 197.876C212.893 198.068 213.081 198.308 213.217 198.596C213.361 198.884 213.433 199.216 213.433 199.592C213.433 199.832 213.393 200.056 213.313 200.264C213.241 200.472 213.137 200.66 213.001 200.828C212.873 200.996 212.717 201.14 212.533 201.26C212.349 201.38 212.149 201.468 211.933 201.524V201.548C212.181 201.596 212.409 201.68 212.617 201.8C212.833 201.92 213.017 202.072 213.169 202.256C213.321 202.432 213.441 202.636 213.529 202.868C213.617 203.1 213.661 203.352 213.661 203.624C213.661 204.048 213.581 204.424 213.421 204.752C213.261 205.072 213.049 205.34 212.785 205.556C212.521 205.772 212.217 205.936 211.873 206.048C211.529 206.16 211.177 206.216 210.817 206.216C210.145 206.216 209.553 206.064 209.041 205.76C208.529 205.456 208.157 204.984 207.925 204.344L209.005 203.984C209.133 204.352 209.349 204.652 209.653 204.884C209.965 205.116 210.345 205.232 210.793 205.232C211.009 205.232 211.217 205.2 211.417 205.136C211.625 205.064 211.809 204.96 211.969 204.824C212.129 204.688 212.257 204.52 212.353 204.32C212.449 204.12 212.497 203.884 212.497 203.612C212.497 203.316 212.433 203.068 212.305 202.868C212.177 202.668 212.009 202.508 211.801 202.388C211.601 202.26 211.373 202.172 211.117 202.124C210.861 202.068 210.609 202.04 210.361 202.04H210.001V201.08Z" fill="#828282"/>
<path d="M217.138 201.08H217.51C217.75 201.08 217.982 201.06 218.206 201.02C218.438 200.972 218.642 200.896 218.818 200.792C218.994 200.68 219.134 200.532 219.238 200.348C219.35 200.164 219.406 199.936 219.406 199.664C219.406 199.448 219.366 199.256 219.286 199.088C219.206 198.912 219.094 198.764 218.95 198.644C218.814 198.524 218.654 198.432 218.47 198.368C218.294 198.296 218.106 198.26 217.906 198.26C217.546 198.26 217.238 198.352 216.982 198.536C216.734 198.72 216.546 198.976 216.418 199.304L215.362 198.932C215.57 198.42 215.902 198.02 216.358 197.732C216.822 197.436 217.354 197.288 217.954 197.288C218.306 197.288 218.638 197.34 218.95 197.444C219.27 197.54 219.55 197.684 219.79 197.876C220.03 198.068 220.218 198.308 220.354 198.596C220.498 198.884 220.57 199.216 220.57 199.592C220.57 199.832 220.53 200.056 220.45 200.264C220.378 200.472 220.274 200.66 220.138 200.828C220.01 200.996 219.854 201.14 219.67 201.26C219.486 201.38 219.286 201.468 219.07 201.524V201.548C219.318 201.596 219.546 201.68 219.754 201.8C219.97 201.92 220.154 202.072 220.306 202.256C220.458 202.432 220.578 202.636 220.666 202.868C220.754 203.1 220.798 203.352 220.798 203.624C220.798 204.048 220.718 204.424 220.558 204.752C220.398 205.072 220.186 205.34 219.922 205.556C219.658 205.772 219.354 205.936 219.01 206.048C218.666 206.16 218.314 206.216 217.954 206.216C217.282 206.216 216.69 206.064 216.178 205.76C215.666 205.456 215.294 204.984 215.062 204.344L216.142 203.984C216.27 204.352 216.486 204.652 216.79 204.884C217.102 205.116 217.482 205.232 217.93 205.232C218.146 205.232 218.354 205.2 218.554 205.136C218.762 205.064 218.946 204.96 219.106 204.824C219.266 204.688 219.394 204.52 219.49 204.32C219.586 204.12 219.634 203.884 219.634 203.612C219.634 203.316 219.57 203.068 219.442 202.868C219.314 202.668 219.146 202.508 218.938 202.388C218.738 202.26 218.51 202.172 218.254 202.124C217.998 202.068 217.746 202.04 217.498 202.04H217.138V201.08Z" fill="#828282"/>
<path d="M224.275 201.08H224.647C224.887 201.08 225.119 201.06 225.343 201.02C225.575 200.972 225.779 200.896 225.955 200.792C226.131 200.68 226.271 200.532 226.375 200.348C226.487 200.164 226.543 199.936 226.543 199.664C226.543 199.448 226.503 199.256 226.423 199.088C226.343 198.912 226.231 198.764 226.087 198.644C225.951 198.524 225.791 198.432 225.607 198.368C225.431 198.296 225.243 198.26 225.043 198.26C224.683 198.26 224.375 198.352 224.119 198.536C223.871 198.72 223.683 198.976 223.555 199.304L222.499 198.932C222.707 198.42 223.039 198.02 223.495 197.732C223.959 197.436 224.491 197.288 225.091 197.288C225.443 197.288 225.775 197.34 226.087 197.444C226.407 197.54 226.687 197.684 226.927 197.876C227.167 198.068 227.355 198.308 227.491 198.596C227.635 198.884 227.707 199.216 227.707 199.592C227.707 199.832 227.667 200.056 227.587 200.264C227.515 200.472 227.411 200.66 227.275 200.828C227.147 200.996 226.991 201.14 226.807 201.26C226.623 201.38 226.423 201.468 226.207 201.524V201.548C226.455 201.596 226.683 201.68 226.891 201.8C227.107 201.92 227.291 202.072 227.443 202.256C227.595 202.432 227.715 202.636 227.803 202.868C227.891 203.1 227.935 203.352 227.935 203.624C227.935 204.048 227.855 204.424 227.695 204.752C227.535 205.072 227.323 205.34 227.059 205.556C226.795 205.772 226.491 205.936 226.147 206.048C225.803 206.16 225.451 206.216 225.091 206.216C224.419 206.216 223.827 206.064 223.315 205.76C222.803 205.456 222.431 204.984 222.199 204.344L223.279 203.984C223.407 204.352 223.623 204.652 223.927 204.884C224.239 205.116 224.619 205.232 225.067 205.232C225.283 205.232 225.491 205.2 225.691 205.136C225.899 205.064 226.083 204.96 226.243 204.824C226.403 204.688 226.531 204.52 226.627 204.32C226.723 204.12 226.771 203.884 226.771 203.612C226.771 203.316 226.707 203.068 226.579 202.868C226.451 202.668 226.283 202.508 226.075 202.388C225.875 202.26 225.647 202.172 225.391 202.124C225.135 202.068 224.883 202.04 224.635 202.04H224.275V201.08Z" fill="#828282"/>
<circle cx="203.5" cy="129.5" r="41.5" fill="#333333"/>
<path d="M336.63 203.468H335.478V202.592H336.75L336.978 200.9H335.802V200.024H337.11L337.458 197.504H338.358L337.998 200.024H339.414L339.762 197.504H340.662L340.302 200.024H341.382V200.9H340.182L339.942 202.592H341.058V203.468H339.834L339.474 206H338.574L338.934 203.468H337.518L337.158 206H336.27L336.63 203.468ZM337.638 202.592H339.054L339.282 200.9H337.878L337.638 202.592Z" fill="#828282"/>
<path d="M344.433 201.08H344.805C345.045 201.08 345.277 201.06 345.501 201.02C345.733 200.972 345.937 200.896 346.113 200.792C346.289 200.68 346.429 200.532 346.533 200.348C346.645 200.164 346.701 199.936 346.701 199.664C346.701 199.448 346.661 199.256 346.581 199.088C346.501 198.912 346.389 198.764 346.245 198.644C346.109 198.524 345.949 198.432 345.765 198.368C345.589 198.296 345.401 198.26 345.201 198.26C344.841 198.26 344.533 198.352 344.277 198.536C344.029 198.72 343.841 198.976 343.713 199.304L342.657 198.932C342.865 198.42 343.197 198.02 343.653 197.732C344.117 197.436 344.649 197.288 345.249 197.288C345.601 197.288 345.933 197.34 346.245 197.444C346.565 197.54 346.845 197.684 347.085 197.876C347.325 198.068 347.513 198.308 347.649 198.596C347.793 198.884 347.865 199.216 347.865 199.592C347.865 199.832 347.825 200.056 347.745 200.264C347.673 200.472 347.569 200.66 347.433 200.828C347.305 200.996 347.149 201.14 346.965 201.26C346.781 201.38 346.581 201.468 346.365 201.524V201.548C346.613 201.596 346.841 201.68 347.049 201.8C347.265 201.92 347.449 202.072 347.601 202.256C347.753 202.432 347.873 202.636 347.961 202.868C348.049 203.1 348.093 203.352 348.093 203.624C348.093 204.048 348.013 204.424 347.853 204.752C347.693 205.072 347.481 205.34 347.217 205.556C346.953 205.772 346.649 205.936 346.305 206.048C345.961 206.16 345.609 206.216 345.249 206.216C344.577 206.216 343.985 206.064 343.473 205.76C342.961 205.456 342.589 204.984 342.357 204.344L343.437 203.984C343.565 204.352 343.781 204.652 344.085 204.884C344.397 205.116 344.777 205.232 345.225 205.232C345.441 205.232 345.649 205.2 345.849 205.136C346.057 205.064 346.241 204.96 346.401 204.824C346.561 204.688 346.689 204.52 346.785 204.32C346.881 204.12 346.929 203.884 346.929 203.612C346.929 203.316 346.865 203.068 346.737 202.868C346.609 202.668 346.441 202.508 346.233 202.388C346.033 202.26 345.805 202.172 345.549 202.124C345.293 202.068 345.041 202.04 344.793 202.04H344.433V201.08Z" fill="#828282"/>
<path d="M351.234 204.944H355.674V206H350.046V197.504H355.494V198.548H351.234V201.092H355.242V202.112H351.234V204.944Z" fill="#828282"/>
<path d="M357.253 197.504H360.181C360.501 197.504 360.821 197.54 361.141 197.612C361.461 197.684 361.745 197.804 361.993 197.972C362.249 198.14 362.453 198.36 362.605 198.632C362.765 198.904 362.845 199.244 362.845 199.652C362.845 200.124 362.709 200.52 362.437 200.84C362.165 201.16 361.805 201.38 361.357 201.5V201.524C361.629 201.556 361.881 201.628 362.113 201.74C362.345 201.844 362.545 201.984 362.713 202.16C362.881 202.336 363.009 202.544 363.097 202.784C363.193 203.024 363.241 203.292 363.241 203.588C363.241 203.996 363.157 204.352 362.989 204.656C362.821 204.96 362.593 205.212 362.305 205.412C362.017 205.604 361.677 205.752 361.285 205.856C360.901 205.952 360.489 206 360.049 206H357.253V197.504ZM358.441 201.092H359.989C360.213 201.092 360.425 201.068 360.625 201.02C360.833 200.964 361.013 200.884 361.165 200.78C361.317 200.668 361.437 200.532 361.525 200.372C361.613 200.204 361.657 200.004 361.657 199.772C361.657 199.316 361.489 198.992 361.153 198.8C360.817 198.6 360.365 198.5 359.797 198.5H358.441V201.092ZM358.441 204.992H359.929C360.177 204.992 360.425 204.972 360.673 204.932C360.929 204.884 361.157 204.804 361.357 204.692C361.565 204.58 361.729 204.432 361.849 204.248C361.977 204.056 362.041 203.816 362.041 203.528C362.041 203.024 361.869 202.66 361.525 202.436C361.181 202.212 360.685 202.1 360.037 202.1H358.441V204.992Z" fill="#828282"/>
<path d="M366.476 201.08H366.848C367.088 201.08 367.32 201.06 367.544 201.02C367.776 200.972 367.98 200.896 368.156 200.792C368.332 200.68 368.472 200.532 368.576 200.348C368.688 200.164 368.744 199.936 368.744 199.664C368.744 199.448 368.704 199.256 368.624 199.088C368.544 198.912 368.432 198.764 368.288 198.644C368.152 198.524 367.992 198.432 367.808 198.368C367.632 198.296 367.444 198.26 367.244 198.26C366.884 198.26 366.576 198.352 366.32 198.536C366.072 198.72 365.884 198.976 365.756 199.304L364.7 198.932C364.908 198.42 365.24 198.02 365.696 197.732C366.16 197.436 366.692 197.288 367.292 197.288C367.644 197.288 367.976 197.34 368.288 197.444C368.608 197.54 368.888 197.684 369.128 197.876C369.368 198.068 369.556 198.308 369.692 198.596C369.836 198.884 369.908 199.216 369.908 199.592C369.908 199.832 369.868 200.056 369.788 200.264C369.716 200.472 369.612 200.66 369.476 200.828C369.348 200.996 369.192 201.14 369.008 201.26C368.824 201.38 368.624 201.468 368.408 201.524V201.548C368.656 201.596 368.884 201.68 369.092 201.8C369.308 201.92 369.492 202.072 369.644 202.256C369.796 202.432 369.916 202.636 370.004 202.868C370.092 203.1 370.136 203.352 370.136 203.624C370.136 204.048 370.056 204.424 369.896 204.752C369.736 205.072 369.524 205.34 369.26 205.556C368.996 205.772 368.692 205.936 368.348 206.048C368.004 206.16 367.652 206.216 367.292 206.216C366.62 206.216 366.028 206.064 365.516 205.76C365.004 205.456 364.632 204.984 364.4 204.344L365.48 203.984C365.608 204.352 365.824 204.652 366.128 204.884C366.44 205.116 366.82 205.232 367.268 205.232C367.484 205.232 367.692 205.2 367.892 205.136C368.1 205.064 368.284 204.96 368.444 204.824C368.604 204.688 368.732 204.52 368.828 204.32C368.924 204.12 368.972 203.884 368.972 203.612C368.972 203.316 368.908 203.068 368.78 202.868C368.652 202.668 368.484 202.508 368.276 202.388C368.076 202.26 367.848 202.172 367.592 202.124C367.336 202.068 367.084 202.04 366.836 202.04H366.476V201.08Z" fill="#828282"/>
<path d="M376.937 198.536H373.433L373.361 200.768C373.521 200.712 373.697 200.672 373.889 200.648C374.089 200.624 374.277 200.612 374.453 200.612C374.861 200.612 375.237 200.676 375.581 200.804C375.933 200.924 376.233 201.1 376.481 201.332C376.737 201.564 376.937 201.848 377.081 202.184C377.225 202.512 377.297 202.88 377.297 203.288C377.297 203.736 377.221 204.14 377.069 204.5C376.917 204.86 376.709 205.168 376.445 205.424C376.181 205.672 375.869 205.864 375.509 206C375.149 206.144 374.757 206.216 374.333 206.216C373.669 206.216 373.109 206.064 372.653 205.76C372.197 205.448 371.853 205.032 371.621 204.512L372.677 204.092C372.813 204.436 373.025 204.712 373.313 204.92C373.609 205.128 373.949 205.232 374.333 205.232C374.581 205.232 374.813 205.188 375.029 205.1C375.245 205.012 375.433 204.888 375.593 204.728C375.753 204.568 375.877 204.376 375.965 204.152C376.061 203.928 376.109 203.68 376.109 203.408C376.109 203.088 376.053 202.812 375.941 202.58C375.837 202.34 375.693 202.144 375.509 201.992C375.325 201.84 375.113 201.728 374.873 201.656C374.633 201.584 374.381 201.548 374.117 201.548C373.797 201.548 373.469 201.592 373.133 201.68C372.797 201.768 372.497 201.88 372.233 202.016L372.353 197.504H376.937V198.536Z" fill="#828282"/>
<path d="M380.413 206H379.225V197.504H384.529V198.548H380.413V201.188H384.265V202.208H380.413V206Z" fill="#828282"/>
<circle cx="359.5" cy="129.5" r="41.5" fill="#3EB35F"/>
<path d="M493.263 203.468H492.111V202.592H493.383L493.611 200.9H492.435V200.024H493.743L494.091 197.504H494.991L494.631 200.024H496.047L496.395 197.504H497.295L496.935 200.024H498.015V200.9H496.815L496.575 202.592H497.691V203.468H496.467L496.107 206H495.207L495.567 203.468H494.151L493.791 206H492.903L493.263 203.468ZM494.271 202.592H495.687L495.915 200.9H494.511L494.271 202.592Z" fill="#828282"/>
<path d="M500.73 206H499.542V197.504H504.846V198.548H500.73V201.188H504.582V202.208H500.73V206Z" fill="#828282"/>
<path d="M510.742 203.096H511.966V204.092H510.742V206H509.614V204.092H505.702V203.036L509.314 197.504H510.742V203.096ZM509.614 198.836H509.59L506.902 203.096H509.614V198.836Z" fill="#828282"/>
<path d="M514.687 206H513.499V197.504H518.803V198.548H514.687V201.188H518.539V202.208H514.687V206Z" fill="#828282"/>
<path d="M524.699 203.096H525.923V204.092H524.699V206H523.571V204.092H519.659V203.036L523.271 197.504H524.699V203.096ZM523.571 198.836H523.547L520.859 203.096H523.571V198.836Z" fill="#828282"/>
<path d="M528.644 206H527.456V197.504H532.76V198.548H528.644V201.188H532.496V202.208H528.644V206Z" fill="#828282"/>
<path d="M538.656 203.096H539.88V204.092H538.656V206H537.528V204.092H533.616V203.036L537.228 197.504H538.656V203.096ZM537.528 198.836H537.504L534.816 203.096H537.528V198.836Z" fill="#828282"/>
<circle cx="515.5" cy="129.5" r="41.5" fill="#F4F4F4"/>
<circle cx="515.5" cy="129.5" r="41" stroke="black" stroke-opacity="0.1"/>
<path d="M649.738 203.468H648.586V202.592H649.858L650.086 200.9H648.91V200.024H650.218L650.566 197.504H651.466L651.106 200.024H652.522L652.87 197.504H653.77L653.41 200.024H654.49V200.9H653.29L653.05 202.592H654.166V203.468H652.942L652.582 206H651.682L652.042 203.468H650.626L650.266 206H649.378L649.738 203.468ZM650.746 202.592H652.162L652.39 200.9H650.986L650.746 202.592Z" fill="#828282"/>
<path d="M657.204 206H656.016V197.504H661.32V198.548H657.204V201.188H661.056V202.208H657.204V206Z" fill="#828282"/>
<path d="M664.025 206H662.837V197.504H668.141V198.548H664.025V201.188H667.877V202.208H664.025V206Z" fill="#828282"/>
<path d="M670.845 206H669.657V197.504H674.961V198.548H670.845V201.188H674.697V202.208H670.845V206Z" fill="#828282"/>
<path d="M677.665 206H676.477V197.504H681.781V198.548H677.665V201.188H681.517V202.208H677.665V206Z" fill="#828282"/>
<path d="M684.486 206H683.298V197.504H688.602V198.548H684.486V201.188H688.338V202.208H684.486V206Z" fill="#828282"/>
<path d="M691.306 206H690.118V197.504H695.422V198.548H691.306V201.188H695.158V202.208H691.306V206Z" fill="#828282"/>
<circle cx="671.5" cy="129.5" r="41.5" fill="white"/>
<circle cx="671.5" cy="129.5" r="41" stroke="black" stroke-opacity="0.1"/>
</svg>
