<svg width="28" height="20" viewBox="0 0 28 20" fill="none" xmlns="http://www.w3.org/2000/svg">
<path d="M1 10.0004C1.01806 10.202 1.1038 10.4712 1.24073 10.6221L8.46295 18.6749C8.778 19.0956 9.42755 19.0943 9.82733 18.7501C10.2271 18.406 10.2576 17.7945 9.9074 17.4314L4.08448 10.9478L26.037 10.9478C26.5688 10.9478 27 10.5236 27 10.0004C27 9.47717 26.5688 9.05303 26.037 9.05303L4.08448 9.05303L9.9074 2.56942C10.2895 2.20638 10.182 1.58379 9.78226 1.23965C9.38248 0.895519 8.77799 0.920033 8.46295 1.32598L1.24073 9.37869C1.0477 9.58441 1.01087 9.80766 1 10.0004V10.0004Z" fill="#4200FF" stroke="#4200FF" stroke-width="0.6"/>
</svg>
