<svg width="28" height="20" viewBox="0 0 28 20" fill="none" xmlns="http://www.w3.org/2000/svg">
<path d="M27 9.9996C26.9819 9.79799 26.8962 9.52884 26.7593 9.37788L19.537 1.32515C19.222 0.904361 18.5725 0.905746 18.1727 1.24989C17.7729 1.59403 17.7424 2.20552 18.0926 2.56858L23.9155 9.05222H1.96296C1.43117 9.05222 1 9.47636 1 9.9996C1 10.5228 1.43117 10.947 1.96296 10.947H23.9155L18.0926 17.4306C17.7105 17.7936 17.818 18.4162 18.2177 18.7603C18.6175 19.1045 19.222 19.08 19.5371 18.674L26.7593 10.6213C26.9523 10.4156 26.9891 10.1923 27 9.9996Z" fill="#4200FF" stroke="#4200FF" stroke-width="0.6"/>
</svg>
