<svg width="52" height="52" viewBox="0 0 52 52" fill="none" xmlns="http://www.w3.org/2000/svg">
<circle cx="26" cy="26" r="25" stroke="white" stroke-width="2"/>
<path d="M29.364 19.9261H34.8537V21.2762H29.364V19.9261ZM23.8633 25.2678C25.0768 24.6792 25.7124 23.7838 25.7124 22.4003C25.7124 19.6639 23.7037 19 21.384 19H15V32.735H21.5629C24.0229 32.735 26.3316 31.5356 26.3316 28.7462C26.3316 27.0223 25.5281 25.7476 23.8633 25.2678ZM17.9774 21.3431H20.7704C21.8463 21.3431 22.8121 21.6471 22.8121 22.9135C22.8121 24.0795 22.0609 24.5481 20.996 24.5481H17.9774V21.3431ZM21.1556 30.4031H17.9746V26.6206H21.2189C22.5287 26.6206 23.357 27.1757 23.357 28.5816C23.357 29.9651 22.3691 30.4031 21.1556 30.4031ZM37 27.9066C37 24.9637 35.3022 22.5119 32.2313 22.5119C29.2457 22.5119 27.2149 24.7908 27.2149 27.7782C27.2149 30.8745 29.1383 33 32.2313 33C34.573 33 36.0892 31.9317 36.8184 29.6527H34.4437C34.185 30.5035 33.1338 30.9498 32.3166 30.9498C30.7371 30.9498 29.9116 30.0126 29.9116 28.4198H36.9807C36.989 28.2552 37 28.0823 37 27.9066ZM29.9116 26.696C29.9969 25.3877 30.8582 24.5704 32.146 24.5704C33.4998 24.5704 34.1767 25.3766 34.2951 26.696H29.9116Z" fill="white"/>
</svg>
