<svg xmlns="http://www.w3.org/2000/svg" viewBox="0 0 50 50"><defs><style>.cls-1{fill:#fff;}</style></defs><g id="Layer_2" data-name="Layer 2"><g id="Layer_1-2" data-name="Layer 1"><g id="behance"><g id="circle"><circle cx="25" cy="25" r="24"/><path class="cls-1" d="M25,2A23,23,0,1,1,2,25,23,23,0,0,1,25,2m0-2A25,25,0,1,0,50,25,25,25,0,0,0,25,0Z"/></g><g id="logo"><path class="cls-1" d="M22.54,24.14a3.43,3.43,0,0,0,1.06-.78,3,3,0,0,0,.64-2,3.5,3.5,0,0,0-.63-2.09A4.33,4.33,0,0,0,20,17.79h-6.7V31.48h6.25a10.12,10.12,0,0,0,2-.18,4.07,4.07,0,0,0,1.57-.69,3.76,3.76,0,0,0,1-1.08,4,4,0,0,0,.62-2.18,3.58,3.58,0,0,0-.54-2A3.12,3.12,0,0,0,22.54,24.14Zm-6.47-4h3a5,5,0,0,1,1.64.22,1.21,1.21,0,0,1,.75,1.26,1.28,1.28,0,0,1-.57,1.2,2.74,2.74,0,0,1-1.46.34H16.07Zm4.78,8.69a3.21,3.21,0,0,1-1.41.25H16.07V25.46h3.42a3.46,3.46,0,0,1,1.39.23,1.46,1.46,0,0,1,.88,1.47A1.71,1.71,0,0,1,20.85,28.86Z"/><rect class="cls-1" x="27.65" y="18.43" width="5.95" height="1.7"/><path class="cls-1" d="M35.66,25.16a4.8,4.8,0,0,0-.82-2.1,4,4,0,0,0-1.77-1.49,5.79,5.79,0,0,0-2.41-.48A5,5,0,0,0,27,22.5a5.43,5.43,0,0,0-1.41,4,4.85,4.85,0,0,0,1.57,4,5.62,5.62,0,0,0,3.61,1.25,5,5,0,0,0,3.86-1.48,3.28,3.28,0,0,0,1-1.83H32.87a2.09,2.09,0,0,1-.55.7,2.29,2.29,0,0,1-1.49.46,2.78,2.78,0,0,1-1.48-.38,2.42,2.42,0,0,1-1.07-2.13h7.47A12.14,12.14,0,0,0,35.66,25.16Zm-7.31.26a2.7,2.7,0,0,1,.71-1.57,2.18,2.18,0,0,1,1.6-.58,2.38,2.38,0,0,1,1.6.55,2.23,2.23,0,0,1,.71,1.6Z"/></g></g></g></g></svg>