<svg width="158" height="38" viewBox="0 0 158 38" fill="none" xmlns="http://www.w3.org/2000/svg">
<g clip-path="url(#clip0)">
<path d="M38.6117 18.8684L38.5005 17.9976L37.6034 17.9049C37.4849 17.8927 36.4496 17.7931 34.9132 17.8608C33.5716 10.7194 27.5131 5.88548 27.2437 5.67372L26.529 5.11226C25.8551 5.64327 25.6964 5.75387 25.2172 6.17996C22.8174 2.7406 20.2022 0.659382 20.0804 0.563531L19.3655 0L18.6499 0.562351C18.5284 0.657834 15.9177 2.72918 13.5114 6.17982C13.0256 5.74797 12.8812 5.64932 12.1999 5.11233L11.4852 5.6738C11.2157 5.88555 5.1571 10.7198 3.81554 17.8616C2.26946 17.7925 1.22689 17.8927 1.10795 17.905L0.197052 17.9991L0.0976691 18.8847C0.0829625 19.0156 -0.250133 22.133 0.812755 25.8067C2.23178 30.7116 5.47905 34.2972 10.2789 36.139L10.279 36.1388C12.8564 37.1552 15.913 37.6707 19.3644 37.6707L19.3644 37.6706C22.8121 37.6706 25.865 37.1673 28.4386 36.1747L28.4387 36.1749C33.1513 34.4406 36.5552 30.884 37.9756 25.8275C39.0121 22.1371 38.6286 19.0001 38.6117 18.8684ZM26.5289 8.02053C28.0703 9.44908 31.6439 13.2013 32.6376 18.068C30.1136 18.4184 27.024 19.2631 24.3449 21.2012C22.8553 19.2703 21.4126 17.8911 20.6288 17.1962C21.8371 12.7565 25.0804 9.36222 26.5289 8.02053ZM19.3644 2.90178C20.3069 3.75994 22.0267 5.47 23.5834 7.78422C22.2333 9.23629 20.551 11.3775 19.3644 14.0254C18.1779 11.3773 16.4955 9.23614 15.1453 7.784C16.702 5.47008 18.4223 3.75972 19.3644 2.90178ZM12.1999 8.02053C13.6488 9.36266 16.8909 12.756 18.0995 17.194C17.3142 17.8868 15.8648 19.2666 14.3696 21.2034C11.6958 19.2681 8.61268 18.4224 6.09081 18.0705C7.08396 13.2022 10.6589 9.44871 12.1999 8.02053ZM3.0223 25.2773C2.39121 23.132 2.301 21.1663 2.31457 20.0595C4.37113 20.0243 9.30047 20.263 13.0747 23.0237C11.0449 26.1341 9.67579 29.6324 9.53222 33.372C6.29655 31.6893 4.10967 28.9738 3.0223 25.2773ZM26.931 34.3602C24.765 35.0894 22.2236 35.4586 19.3643 35.4587C16.5046 35.4587 13.9632 35.0807 11.7969 34.3339C11.7139 30.6813 12.9854 26.9887 15.5822 23.3473C17.0107 21.3442 18.4992 19.8615 19.3623 19.072C20.2271 19.8665 21.7209 21.3603 23.1527 23.374C25.7497 27.0263 27.019 30.7184 26.931 34.3602ZM35.7816 25.2446C34.7281 28.9953 32.5163 31.7385 29.1974 33.4214C29.0623 29.6897 27.6983 26.1735 25.6396 23.0212C29.4244 20.2546 34.3679 20.0226 36.4137 20.0597C36.4449 21.1511 36.385 23.0964 35.7816 25.2446Z" fill="white"/>
</g>
<path d="M66.1653 21.7134C66.1653 22.5874 65.9872 23.3257 65.6309 23.9285C65.2745 24.5161 64.802 24.9908 64.2133 25.3524C63.6246 25.714 62.9507 25.9777 62.1915 26.1435C61.4479 26.2942 60.681 26.3695 59.8909 26.3695H53.3376V10.367H59.8909C60.5261 10.367 61.1768 10.4348 61.843 10.5704C62.5091 10.691 63.1133 10.9095 63.6556 11.2259C64.1978 11.5273 64.6393 11.9417 64.9802 12.469C65.321 12.9964 65.4914 13.667 65.4914 14.4807C65.4914 15.3697 65.2435 16.108 64.7478 16.6957C64.252 17.2683 63.6014 17.6827 62.7957 17.9388V17.984C63.2605 18.0594 63.6943 18.2025 64.0971 18.4135C64.5154 18.6094 64.8717 18.8655 65.1661 19.182C65.4759 19.4984 65.7161 19.8676 65.8865 20.2895C66.0724 20.7114 66.1653 21.186 66.1653 21.7134ZM61.6571 15.0005C61.6571 14.4581 61.4402 14.0663 61.0064 13.8252C60.5881 13.569 59.9606 13.4409 59.1241 13.4409H57.172V16.7409H59.31C60.0536 16.7409 60.6268 16.5977 61.0296 16.3114C61.4479 16.0101 61.6571 15.5731 61.6571 15.0005ZM62.1915 21.3518C62.1915 20.6888 61.9359 20.2292 61.4247 19.973C60.9134 19.7169 60.2318 19.5888 59.3797 19.5888H57.172V23.2504H59.4029C59.7128 23.2504 60.0304 23.2278 60.3557 23.1826C60.6965 23.1223 60.9986 23.0244 61.262 22.8887C61.5409 22.7531 61.7655 22.5648 61.9359 22.3237C62.1063 22.0675 62.1915 21.7436 62.1915 21.3518Z" fill="white"/>
<path d="M76.0891 18.1422C75.9187 18.097 75.7483 18.0669 75.5779 18.0518C75.423 18.0368 75.268 18.0292 75.1131 18.0292C74.6019 18.0292 74.1681 18.1196 73.8117 18.3005C73.4709 18.4813 73.1921 18.6998 72.9752 18.9559C72.7738 19.2121 72.6266 19.4909 72.5336 19.7922C72.4407 20.0936 72.3942 20.3573 72.3942 20.5833V26.3695H68.5831V15.1135H72.2548V16.7409H72.3012C72.5956 16.1683 73.0139 15.7012 73.5561 15.3395C74.0984 14.9779 74.7258 14.7971 75.4384 14.7971C75.5934 14.7971 75.7405 14.8046 75.88 14.8197C76.0349 14.8348 76.1588 14.8574 76.2518 14.8875L76.0891 18.1422Z" fill="white"/>
<path d="M85.3591 19.4532C85.3591 18.8655 85.1655 18.3607 84.7782 17.9388C84.4064 17.5169 83.8409 17.306 83.0818 17.306C82.7099 17.306 82.3691 17.3662 82.0593 17.4868C81.7494 17.5923 81.4783 17.7429 81.2459 17.9388C81.0135 18.1347 80.8276 18.3683 80.6882 18.6395C80.5488 18.8957 80.4713 19.1669 80.4558 19.4532H85.3591ZM88.8682 20.8771C88.8682 21.0278 88.8682 21.1785 88.8682 21.3292C88.8682 21.4799 88.8604 21.623 88.8449 21.7586H80.4558C80.4868 22.0751 80.5797 22.3614 80.7347 22.6175C80.9051 22.8737 81.1142 23.0997 81.3621 23.2956C81.6255 23.4764 81.9121 23.6196 82.2219 23.725C82.5473 23.8305 82.8804 23.8833 83.2212 23.8833C83.8254 23.8833 84.3366 23.7778 84.7549 23.5668C85.1732 23.3408 85.5141 23.0545 85.7774 22.7079L88.4266 24.3353C87.8844 25.1038 87.164 25.699 86.2654 26.1209C85.3824 26.5277 84.3521 26.7312 83.1747 26.7312C82.3071 26.7312 81.486 26.6031 80.7114 26.3469C79.9368 26.0757 79.2551 25.6914 78.6664 25.1942C78.0932 24.6819 77.6362 24.0565 77.2954 23.3182C76.97 22.5798 76.8073 21.736 76.8073 20.7867C76.8073 19.8676 76.97 19.0388 77.2954 18.3005C77.6207 17.547 78.0622 16.9142 78.62 16.4019C79.1777 15.8745 79.8361 15.4676 80.5952 15.1813C81.3544 14.895 82.1755 14.7519 83.0585 14.7519C83.9106 14.7519 84.693 14.895 85.4056 15.1813C86.1183 15.4526 86.7302 15.8519 87.2415 16.3793C87.7527 16.9066 88.1478 17.547 88.4266 18.3005C88.721 19.0539 88.8682 19.9128 88.8682 20.8771Z" fill="white"/>
<path d="M105.965 26.3695H102.131L99.8531 19.3628H99.8066L97.5757 26.3695H93.7414L89.7443 15.1135H93.8576L95.8561 22.2333H95.9258L97.994 15.1135H101.828L103.966 22.2333H104.013L106.035 15.1135H109.985L105.965 26.3695Z" fill="white"/>
<path d="M115.611 13.667V16.9669H121.978V20.1539H115.611V26.3695H111.684V10.367H122.513V13.667H115.611Z" fill="white"/>
<path d="M128.592 11.5197C128.592 11.806 128.53 12.0773 128.406 12.3334C128.298 12.5745 128.143 12.7855 127.941 12.9663C127.755 13.1471 127.523 13.2903 127.244 13.3957C126.981 13.5012 126.702 13.554 126.408 13.554C125.788 13.554 125.269 13.3581 124.851 12.9663C124.432 12.5595 124.223 12.0773 124.223 11.5197C124.223 11.2485 124.277 10.9924 124.386 10.7513C124.494 10.4951 124.649 10.2766 124.851 10.0958C125.052 9.91497 125.284 9.77182 125.548 9.66635C125.811 9.5458 126.098 9.48553 126.408 9.48553C126.702 9.48553 126.981 9.53827 127.244 9.64374C127.523 9.74922 127.755 9.89237 127.941 10.0732C128.143 10.254 128.298 10.4725 128.406 10.7287C128.53 10.9698 128.592 11.2334 128.592 11.5197ZM124.502 26.3695V15.1135H128.313V26.3695H124.502Z" fill="white"/>
<path d="M138.931 26.3695V20.2217C138.931 19.9052 138.9 19.6039 138.838 19.3176C138.791 19.0313 138.706 18.7826 138.582 18.5717C138.458 18.3457 138.28 18.1724 138.048 18.0518C137.831 17.9162 137.552 17.8484 137.211 17.8484C136.87 17.8484 136.568 17.9162 136.305 18.0518C136.057 18.1724 135.848 18.3457 135.677 18.5717C135.507 18.7977 135.375 19.0614 135.282 19.3628C135.205 19.6491 135.166 19.9504 135.166 20.2669V26.3695H131.332V15.1135H135.027V16.6731H135.073C135.213 16.432 135.391 16.1984 135.608 15.9724C135.84 15.7313 136.103 15.5279 136.398 15.3621C136.708 15.1964 137.041 15.0608 137.397 14.9553C137.753 14.8498 138.133 14.7971 138.536 14.7971C139.31 14.7971 139.969 14.9327 140.511 15.2039C141.053 15.4752 141.487 15.8293 141.812 16.2662C142.153 16.6882 142.393 17.1779 142.533 17.7354C142.688 18.2929 142.765 18.8505 142.765 19.408V26.3695H138.931Z" fill="white"/>
<path d="M154.413 26.3695V24.9004H154.366C153.994 25.473 153.46 25.9175 152.763 26.2339C152.081 26.5353 151.353 26.6859 150.578 26.6859C149.711 26.6859 148.936 26.5202 148.254 26.1887C147.573 25.8572 146.992 25.4202 146.511 24.8778C146.047 24.3202 145.69 23.6798 145.442 22.9566C145.195 22.2333 145.071 21.4799 145.071 20.6963C145.071 19.9128 145.195 19.1669 145.442 18.4587C145.706 17.7354 146.07 17.1025 146.535 16.5601C147.015 16.0176 147.588 15.5882 148.254 15.2717C148.936 14.9553 149.695 14.7971 150.532 14.7971C151.384 14.7971 152.104 14.9553 152.693 15.2717C153.282 15.5882 153.739 15.9347 154.064 16.3114H154.11V9.2821H157.922V26.3695H154.413ZM154.273 20.7189C154.273 20.3573 154.203 20.0032 154.064 19.6566C153.94 19.31 153.754 19.0011 153.506 18.7299C153.274 18.4587 152.987 18.2402 152.646 18.0744C152.306 17.9087 151.918 17.8258 151.485 17.8258C151.035 17.8258 150.64 17.9087 150.299 18.0744C149.959 18.2402 149.672 18.4587 149.44 18.7299C149.207 18.9861 149.029 19.2874 148.905 19.634C148.797 19.9806 148.742 20.3347 148.742 20.6963C148.742 21.058 148.797 21.4196 148.905 21.7812C149.029 22.1278 149.207 22.4367 149.44 22.7079C149.672 22.9792 149.959 23.1976 150.299 23.3634C150.64 23.5291 151.035 23.612 151.485 23.612C151.918 23.612 152.306 23.5291 152.646 23.3634C152.987 23.1976 153.274 22.9792 153.506 22.7079C153.754 22.4367 153.94 22.1278 154.064 21.7812C154.203 21.4347 154.273 21.0806 154.273 20.7189Z" fill="white"/>
<defs>
<clipPath id="clip0">
<rect width="38.731" height="37.6707" fill="white"/>
</clipPath>
</defs>
</svg>
