<svg width="68" height="68" viewBox="0 0 68 68" fill="none" xmlns="http://www.w3.org/2000/svg">
<g clip-path="url(#clip0)">
<path d="M38.5712 34.0011L67.0511 5.52024C68.3145 4.2581 68.3145 2.211 67.0511 0.948867C65.7878 -0.314566 63.7421 -0.314566 62.4799 0.948867L34 29.4285L5.51877 0.947574C4.25667 -0.315858 2.20835 -0.315858 0.947543 0.947574C-0.315848 2.20972 -0.315848 4.25681 0.947543 5.51895L29.4275 33.9998L0.947543 62.4821C-0.315848 63.7454 -0.315848 65.7912 0.947543 67.0534C1.57859 67.6845 2.4062 68 3.2338 68C4.06141 68 4.88901 67.6845 5.52006 67.0534L34 38.5725L62.4799 67.0534C63.111 67.6845 63.9386 68 64.7662 68C65.5938 68 66.4202 67.6845 67.0525 67.0534C68.3158 65.79 68.3158 63.7442 67.0525 62.4821L38.5712 34.0011Z" fill="black"/>
</g>
<defs>
<clipPath id="clip0">
<rect width="68" height="68" fill="white"/>
</clipPath>
</defs>
</svg>
