<svg width="23" height="22" viewBox="0 0 23 22" fill="none" xmlns="http://www.w3.org/2000/svg">
<path d="M6.5 1C5.67765 1 5 1.66112 5 2.46341V3.43902H2.5C1.67765 3.43902 1 4.10015 1 4.90244V19.5366C1 20.3389 1.67765 21 2.5 21H20.5C21.3224 21 22 20.3389 22 19.5366V4.90244C22 4.10015 21.3224 3.43902 20.5 3.43902H18V2.46341C18 1.66112 17.3224 1 16.5 1C15.6776 1 15 1.66112 15 2.46341V3.43902H8V2.46341C8 1.66112 7.32235 1 6.5 1V1ZM6.5 1.97561C6.78565 1.97561 7 2.18473 7 2.46341V5.39024C7 5.66893 6.78565 5.87805 6.5 5.87805C6.21435 5.87805 6 5.66893 6 5.39024V2.46341C6 2.18473 6.21435 1.97561 6.5 1.97561ZM16.5 1.97561C16.7856 1.97561 17 2.18473 17 2.46341V5.39024C17 5.66893 16.7856 5.87805 16.5 5.87805C16.2144 5.87805 16 5.66893 16 5.39024V2.46341C16 2.18473 16.2144 1.97561 16.5 1.97561ZM2.5 4.41463H5V5.39024C5 6.19254 5.67765 6.85366 6.5 6.85366C7.32235 6.85366 8 6.19254 8 5.39024V4.41463H15V5.39024C15 6.19254 15.6776 6.85366 16.5 6.85366C17.3224 6.85366 18 6.19254 18 5.39024V4.41463H20.5C20.7856 4.41463 21 4.6238 21 4.90244V7.82927H2V4.90244C2 4.6238 2.21441 4.41463 2.5 4.41463ZM2 8.80488H21V19.5366C21 19.8152 20.7856 20.0244 20.5 20.0244H2.5C2.21441 20.0244 2 19.8152 2 19.5366V8.80488V8.80488Z" fill="black" stroke="black" stroke-width="0.2"/>
</svg>
