<?xml version="1.0" encoding="utf-8"?>
<!-- Generator: Adobe Illustrator 24.3.0, SVG Export Plug-In . SVG Version: 6.00 Build 0)  -->
<svg version="1.1" id="Capa_1" xmlns="http://www.w3.org/2000/svg" xmlns:xlink="http://www.w3.org/1999/xlink" x="0px" y="0px"
	 viewBox="0 0 512 512" style="enable-background:new 0 0 512 512;" xml:space="preserve">
<style type="text/css">
	.st0{fill:#FFFFFF;}
</style>
<g>
	<circle class="st0" cx="256" cy="296" r="81"/>
	<path class="st0" d="M374.3,91l-5.2-25.9C366.3,51.1,354,41,339.7,41H172.3c-14.2,0-26.6,10.1-29.4,24.1L137.7,91H374.3z"/>
	<path class="st0" d="M467,121c-35.2,0-405.5,0-422,0c-24.8,0-45,20.2-45,45v260c0,24.8,20.2,45,45,45h422c24.8,0,45-20.2,45-45V166
		C512,141.2,491.8,121,467,121z M128,215H80c-8.3,0-15-6.7-15-15s6.7-15,15-15h48c8.3,0,15,6.7,15,15S136.3,215,128,215z M256,407
		c-61.2,0-111-49.8-111-111s49.8-111,111-111s111,49.8,111,111S317.2,407,256,407z"/>
</g>
</svg>
