<svg width="38" height="38" viewBox="0 0 38 38" fill="none" xmlns="http://www.w3.org/2000/svg">
<path d="M14.9929 26.6298C14.8494 26.6298 14.7048 26.5805 14.5868 26.48L10.5272 23.0232C10.3872 22.9038 10.3066 22.7295 10.3066 22.5453C10.3066 22.3615 10.3875 22.1872 10.5272 22.0678L14.5868 18.611C14.8504 18.3863 15.2464 18.4181 15.4711 18.6818C15.6956 18.9457 15.664 19.3417 15.4001 19.5661L11.9016 22.5453L15.4001 25.5246C15.664 25.7493 15.6956 26.1453 15.4711 26.4089C15.3469 26.5549 15.1704 26.6298 14.9929 26.6298Z" fill="#4200FF"/>
<path d="M23.0071 26.6298C22.8296 26.6298 22.6531 26.5549 22.5292 26.4089C22.3044 26.1453 22.3363 25.7493 22.5999 25.5246L26.0983 22.5453L22.5999 19.5661C22.3363 19.3417 22.3044 18.9457 22.5292 18.6818C22.7536 18.4181 23.1499 18.3863 23.4132 18.611L27.4728 22.0678C27.6128 22.1872 27.6933 22.3615 27.6933 22.5453C27.6933 22.7295 27.6128 22.9038 27.4728 23.0232L23.4132 26.48C23.2952 26.5805 23.1506 26.6298 23.0071 26.6298V26.6298Z" fill="#4200FF"/>
<path d="M17.5629 29.2225C17.5199 29.2225 17.4764 29.218 17.4327 29.2089C17.0938 29.1375 16.8767 28.8045 16.9482 28.4657L19.4783 16.4531C19.5497 16.1142 19.8823 15.8971 20.2215 15.9686C20.5604 16.04 20.7774 16.3726 20.706 16.7118L18.1759 28.7244C18.1136 29.0198 17.8531 29.2225 17.5629 29.2225V29.2225Z" fill="#4200FF"/>
<path d="M33.7877 35.7671H4.21226C1.88978 35.7671 0 33.8777 0 31.5548V6.4528C0 4.13032 1.88978 2.24054 4.21226 2.24054H33.7877C36.1102 2.24054 38 4.13032 38 6.4528V31.5548C38 33.8777 36.1102 35.7671 33.7877 35.7671ZM4.21226 3.49526C2.58155 3.49526 1.25472 4.82209 1.25472 6.4528V31.5548C1.25472 33.1856 2.58155 34.5124 4.21226 34.5124H33.7877C35.4184 34.5124 36.7453 33.1856 36.7453 31.5548V6.4528C36.7453 4.82209 35.4184 3.49526 33.7877 3.49526H4.21226Z" fill="black"/>
<path d="M37.3726 12.2863H0.627358C0.280771 12.2863 0 12.0056 0 11.659C0 11.3127 0.280771 11.0316 0.627358 11.0316H37.3726C37.7192 11.0316 38 11.3127 38 11.659C38 12.0056 37.7192 12.2863 37.3726 12.2863Z" fill="black"/>
<path d="M10.719 9.28436C9.62462 9.28436 8.73364 8.39339 8.73364 7.29901C8.73364 6.20428 9.62462 5.31366 10.719 5.31366C11.8137 5.31366 12.7043 6.20428 12.7043 7.29901C12.7043 8.39339 11.8137 9.28436 10.719 9.28436ZM10.719 6.56838C10.3164 6.56838 9.98836 6.89606 9.98836 7.29901C9.98836 7.70196 10.3164 8.02965 10.719 8.02965C11.1219 8.02965 11.4496 7.70196 11.4496 7.29901C11.4496 6.89606 11.1219 6.56838 10.719 6.56838Z" fill="#4200FF"/>
<path d="M4.61914 9.26508C3.52441 9.26508 2.63379 8.37445 2.63379 7.27972C2.63379 6.185 3.52441 5.29437 4.61914 5.29437C5.71387 5.29437 6.60449 6.185 6.60449 7.27972C6.60449 8.37445 5.71387 9.26508 4.61914 9.26508ZM4.61914 6.54909C4.21654 6.54909 3.88851 6.87712 3.88851 7.27972C3.88851 7.68268 4.21654 8.01036 4.61914 8.01036C5.02209 8.01036 5.34977 7.68268 5.34977 7.27972C5.34977 6.87712 5.02209 6.54909 4.61914 6.54909Z" fill="#4200FF"/>
<path d="M16.819 9.30324C15.7246 9.30324 14.834 8.41261 14.834 7.31789C14.834 6.22351 15.7246 5.33289 16.819 5.33289C17.9137 5.33289 18.8043 6.22351 18.8043 7.31789C18.8043 8.41261 17.9137 9.30324 16.819 9.30324ZM16.819 6.58725C16.4164 6.58725 16.0887 6.91494 16.0887 7.31789C16.0887 7.72084 16.4164 8.04852 16.819 8.04852C17.2219 8.04852 17.5496 7.72084 17.5496 7.31789C17.5496 6.91494 17.2219 6.58725 16.819 6.58725Z" fill="#4200FF"/>
</svg>
