<svg width="40" height="34" viewBox="0 0 40 34" fill="none" xmlns="http://www.w3.org/2000/svg">
<path d="M15.9929 24.6298C15.8494 24.6298 15.7048 24.5805 15.5868 24.48L11.5272 21.0232C11.3872 20.9038 11.3066 20.7295 11.3066 20.5453C11.3066 20.3615 11.3875 20.1872 11.5272 20.0678L15.5868 16.611C15.8504 16.3863 16.2464 16.4181 16.4711 16.6818C16.6956 16.9457 16.664 17.3417 16.4001 17.5661L12.9016 20.5453L16.4001 23.5246C16.664 23.7493 16.6956 24.1453 16.4711 24.4089C16.3469 24.5549 16.1704 24.6298 15.9929 24.6298Z" fill="#4200FF" stroke="#4200FF" stroke-width="0.1"/>
<path d="M24.0071 24.6298C23.8296 24.6298 23.6531 24.5549 23.5292 24.4089C23.3044 24.1453 23.3363 23.7493 23.5999 23.5246L27.0983 20.5453L23.5999 17.5661C23.3363 17.3417 23.3044 16.9457 23.5292 16.6818C23.7536 16.4181 24.1499 16.3863 24.4132 16.611L28.4728 20.0678C28.6128 20.1872 28.6933 20.3615 28.6933 20.5453C28.6933 20.7295 28.6128 20.9038 28.4728 21.0232L24.4132 24.48C24.2952 24.5805 24.1506 24.6298 24.0071 24.6298V24.6298Z" fill="#4200FF" stroke="#4200FF" stroke-width="0.1"/>
<path d="M18.5629 27.2225C18.5199 27.2225 18.4764 27.218 18.4327 27.2089C18.0938 27.1375 17.8767 26.8045 17.9482 26.4657L20.4783 14.4531C20.5497 14.1142 20.8823 13.8971 21.2215 13.9686C21.5604 14.04 21.7774 14.3726 21.706 14.7118L19.1759 26.7244C19.1136 27.0198 18.8531 27.2225 18.5629 27.2225V27.2225Z" fill="#4200FF" stroke="#4200FF" stroke-width="0.1"/>
<path d="M34.7877 33.7671H5.21226C2.88978 33.7671 1 31.8777 1 29.5548V4.4528C1 2.13032 2.88978 0.24054 5.21226 0.24054H34.7877C37.1102 0.24054 39 2.13032 39 4.4528V29.5548C39 31.8777 37.1102 33.7671 34.7877 33.7671ZM5.21226 1.49526C3.58155 1.49526 2.25472 2.82209 2.25472 4.4528V29.5548C2.25472 31.1856 3.58155 32.5124 5.21226 32.5124H34.7877C36.4184 32.5124 37.7453 31.1856 37.7453 29.5548V4.4528C37.7453 2.82209 36.4184 1.49526 34.7877 1.49526H5.21226Z" fill="black" stroke="black" stroke-width="0.2"/>
<path d="M38.3726 10.2863H1.62736C1.28077 10.2863 1 10.0056 1 9.65898C1 9.31274 1.28077 9.03162 1.62736 9.03162H38.3726C38.7192 9.03162 39 9.31274 39 9.65898C39 10.0056 38.7192 10.2863 38.3726 10.2863Z" fill="black"/>
<path d="M11.719 7.28436C10.6246 7.28436 9.73364 6.39339 9.73364 5.29901C9.73364 4.20428 10.6246 3.31366 11.719 3.31366C12.8137 3.31366 13.7043 4.20428 13.7043 5.29901C13.7043 6.39339 12.8137 7.28436 11.719 7.28436ZM11.719 4.56838C11.3164 4.56838 10.9884 4.89606 10.9884 5.29901C10.9884 5.70196 11.3164 6.02965 11.719 6.02965C12.1219 6.02965 12.4496 5.70196 12.4496 5.29901C12.4496 4.89606 12.1219 4.56838 11.719 4.56838Z" fill="#4200FF"/>
<path d="M5.61914 7.26508C4.52441 7.26508 3.63379 6.37445 3.63379 5.27972C3.63379 4.185 4.52441 3.29437 5.61914 3.29437C6.71387 3.29437 7.60449 4.185 7.60449 5.27972C7.60449 6.37445 6.71387 7.26508 5.61914 7.26508ZM5.61914 4.54909C5.21654 4.54909 4.88851 4.87712 4.88851 5.27972C4.88851 5.68268 5.21654 6.01036 5.61914 6.01036C6.02209 6.01036 6.34977 5.68268 6.34977 5.27972C6.34977 4.87712 6.02209 4.54909 5.61914 4.54909Z" fill="#4200FF"/>
<path d="M17.819 7.30324C16.7246 7.30324 15.834 6.41261 15.834 5.31789C15.834 4.22351 16.7246 3.33289 17.819 3.33289C18.9137 3.33289 19.8043 4.22351 19.8043 5.31789C19.8043 6.41261 18.9137 7.30324 17.819 7.30324ZM17.819 4.58725C17.4164 4.58725 17.0887 4.91494 17.0887 5.31789C17.0887 5.72084 17.4164 6.04852 17.819 6.04852C18.2219 6.04852 18.5496 5.72084 18.5496 5.31789C18.5496 4.91494 18.2219 4.58725 17.819 4.58725Z" fill="#4200FF"/>
</svg>
