<svg width="52" height="52" viewBox="0 0 52 52" fill="none" xmlns="http://www.w3.org/2000/svg">
<circle cx="26" cy="26" r="25" stroke="white" stroke-width="2"/>
<path d="M25.9973 20.869C23.1579 20.869 20.8664 23.1606 20.8664 26C20.8664 28.8394 23.1579 31.131 25.9973 31.131C28.8367 31.131 31.1282 28.8394 31.1282 26C31.1282 23.1606 28.8367 20.869 25.9973 20.869ZM25.9973 29.3348C24.1611 29.3348 22.6626 27.8362 22.6626 26C22.6626 24.1638 24.1611 22.6652 25.9973 22.6652C27.8335 22.6652 29.332 24.1638 29.332 26C29.332 27.8362 27.8335 29.3348 25.9973 29.3348ZM31.3383 19.4631C30.6754 19.4631 30.14 19.9984 30.14 20.6614C30.14 21.3243 30.6754 21.8597 31.3383 21.8597C32.0013 21.8597 32.5366 21.3268 32.5366 20.6614C32.5368 20.504 32.5059 20.3481 32.4458 20.2026C32.3856 20.0571 32.2974 19.9249 32.1861 19.8136C32.0748 19.7023 31.9426 19.614 31.7971 19.5539C31.6516 19.4937 31.4957 19.4629 31.3383 19.4631V19.4631ZM35.9989 26C35.9989 24.6191 36.0114 23.2506 35.9338 21.8722C35.8563 20.2711 35.4911 18.8502 34.3203 17.6794C33.147 16.5061 31.7286 16.1433 30.1275 16.0658C28.7466 15.9882 27.3782 16.0007 25.9998 16.0007C24.6189 16.0007 23.2505 15.9882 21.8721 16.0658C20.271 16.1433 18.8501 16.5086 17.6793 17.6794C16.5061 18.8527 16.1433 20.2711 16.0658 21.8722C15.9882 23.2531 16.0007 24.6216 16.0007 26C16.0007 27.3784 15.9882 28.7494 16.0658 30.1278C16.1433 31.7289 16.5086 33.1498 17.6793 34.3206C18.8526 35.4939 20.271 35.8567 21.8721 35.9342C23.253 36.0118 24.6214 35.9993 25.9998 35.9993C27.3807 35.9993 28.7491 36.0118 30.1275 35.9342C31.7286 35.8567 33.1495 35.4914 34.3203 34.3206C35.4936 33.1473 35.8563 31.7289 35.9338 30.1278C36.0139 28.7494 35.9989 27.3809 35.9989 26V26ZM33.7974 31.899C33.6148 32.3543 33.3947 32.6945 33.0419 33.0448C32.6892 33.3975 32.3515 33.6176 31.8962 33.8003C30.5803 34.3231 27.4558 34.2055 25.9973 34.2055C24.5389 34.2055 21.4118 34.3231 20.0959 33.8028C19.6406 33.6201 19.3004 33.4 18.9502 33.0473C18.5975 32.6945 18.3773 32.3568 18.1947 31.9015C17.6743 30.5831 17.7919 27.4585 17.7919 26C17.7919 24.5415 17.6743 21.4144 18.1947 20.0985C18.3773 19.6432 18.5975 19.303 18.9502 18.9527C19.3029 18.6025 19.6406 18.3799 20.0959 18.1972C21.4118 17.6769 24.5389 17.7945 25.9973 17.7945C27.4558 17.7945 30.5828 17.6769 31.8987 18.1972C32.354 18.3799 32.6942 18.6 33.0444 18.9527C33.3972 19.3055 33.6173 19.6432 33.7999 20.0985C34.3203 21.4144 34.2027 24.5415 34.2027 26C34.2027 27.4585 34.3203 30.5831 33.7974 31.899Z" fill="white"/>
</svg>
