<svg xmlns="http://www.w3.org/2000/svg" viewBox="0 0 50 50"><defs><style>.cls-1{fill:#fff;}</style></defs><g id="Layer_2" data-name="Layer 2"><g id="Layer_1-2" data-name="Layer 1"><g id="instagram"><g id="circle"><circle cx="25" cy="25" r="24"/><path class="cls-1" d="M25,2A23,23,0,1,1,2,25,23,23,0,0,1,25,2m0-2A25,25,0,1,0,50,25,25,25,0,0,0,25,0Z"/></g><g id="logo"><path class="cls-1" d="M29,15.18H20.37a5.32,5.32,0,0,0-5.32,5.32v8.64a5.33,5.33,0,0,0,5.32,5.32H29a5.32,5.32,0,0,0,5.32-5.32V20.5A5.32,5.32,0,0,0,29,15.18Zm3.61,14A3.61,3.61,0,0,1,29,32.75H20.37a3.61,3.61,0,0,1-3.61-3.61V20.5a3.61,3.61,0,0,1,3.61-3.61H29a3.61,3.61,0,0,1,3.61,3.61v8.64Z"/><path class="cls-1" d="M24.69,19.85a5,5,0,1,0,5,5A5,5,0,0,0,24.69,19.85Zm0,8.22A3.26,3.26,0,1,1,28,24.82,3.26,3.26,0,0,1,24.69,28.07Z"/><path class="cls-1" d="M29.87,18.4a1.26,1.26,0,0,0-1.26,1.25,1.28,1.28,0,0,0,.37.89,1.26,1.26,0,0,0,1.78,0,1.27,1.27,0,0,0,.36-.89,1.25,1.25,0,0,0-1.25-1.25Z"/></g></g></g></g></svg>