<svg width="44" height="44" viewBox="0 0 44 44" fill="none" xmlns="http://www.w3.org/2000/svg">
<g clip-path="url(#clip0)">
<path d="M26.0925 9.72197C26.4488 9.72197 26.7376 9.43313 26.7376 9.07683C26.7376 8.72054 26.4488 8.4317 26.0925 8.4317H20.6071C20.2508 8.4317 19.962 8.72054 19.962 9.07683V21.3549H15.7668V19.4815C15.7668 18.3946 14.8825 17.5103 13.7956 17.5103H1.97115C0.884297 17.5104 0 18.3946 0 19.4815V24.5185C0 25.6054 0.884297 26.4897 1.97115 26.4897H3.16241C3.51871 26.4897 3.80755 26.2008 3.80755 25.8445C3.80755 25.4882 3.5188 25.1994 3.16241 25.1994H1.97115C1.59569 25.1994 1.29027 24.894 1.29027 24.5185V19.4815C1.29027 19.106 1.59569 18.8006 1.97115 18.8006H13.7956C14.1711 18.8006 14.4765 19.106 14.4765 19.4815V24.5185C14.4765 24.894 14.1711 25.1994 13.7956 25.1994H6.14436C5.78806 25.1994 5.49923 25.4882 5.49923 25.8445C5.49923 26.2008 5.78798 26.4897 6.14436 26.4897H13.7956C14.8825 26.4897 15.7668 25.6055 15.7668 24.5185V22.6451H19.962V34.9231C19.962 35.2794 20.2508 35.5683 20.6071 35.5683H26.0925C26.4488 35.5683 26.7376 35.2794 26.7376 34.9231C26.7376 34.5668 26.4488 34.278 26.0925 34.278H21.2523V22.6452H26.0925C26.4488 22.6452 26.7376 22.3563 26.7376 22C26.7376 21.6437 26.4488 21.3549 26.0925 21.3549H21.2523V9.72197H26.0925Z" fill="black"/>
<path d="M10.4638 21.5198C10.8201 21.5198 11.109 21.2309 11.109 20.8746C11.109 20.5183 10.8202 20.2295 10.4638 20.2295H5.30285C4.94655 20.2295 4.65771 20.5183 4.65771 20.8746C4.65771 21.2309 4.94655 21.5198 5.30285 21.5198H10.4638Z" fill="#4200FF"/>
<path d="M2.80835 23.3904C2.80835 23.7467 3.09719 24.0355 3.45348 24.0355H12.3131C12.6694 24.0355 12.9583 23.7467 12.9583 23.3904C12.9583 23.0341 12.6695 22.7452 12.3131 22.7452H3.45348C3.09719 22.7452 2.80835 23.0341 2.80835 23.3904V23.3904Z" fill="#4200FF"/>
<path d="M42.0288 4.58716H30.2043C29.1174 4.58716 28.2332 5.47137 28.2332 6.55831V11.5954C28.2332 12.6823 29.1174 13.5666 30.2043 13.5666H42.0288C43.1156 13.5666 43.9999 12.6824 43.9999 11.5954V6.55831C43.9999 5.47146 43.1156 4.58716 42.0288 4.58716ZM42.7097 11.5954C42.7097 11.9709 42.4042 12.2763 42.0288 12.2763H30.2043C29.8288 12.2763 29.5234 11.9709 29.5234 11.5954V6.55831C29.5234 6.18285 29.8288 5.87742 30.2043 5.87742H42.0288C42.4042 5.87742 42.7097 6.18285 42.7097 6.55831V11.5954Z" fill="black"/>
<path d="M42.0288 17.5103H34.6587C34.3024 17.5103 34.0136 17.7992 34.0136 18.1554C34.0136 18.5117 34.3024 18.8006 34.6587 18.8006H42.0288C42.4042 18.8006 42.7097 19.106 42.7097 19.4815V24.5185C42.7097 24.894 42.4042 25.1994 42.0288 25.1994H30.2043C29.8288 25.1994 29.5234 24.894 29.5234 24.5185V19.4815C29.5234 19.106 29.8288 18.8006 30.2043 18.8006H31.6867C32.043 18.8006 32.3319 18.5117 32.3319 18.1554C32.3319 17.7992 32.043 17.5103 31.6867 17.5103H30.2043C29.1174 17.5103 28.2332 18.3945 28.2332 19.4815V24.5185C28.2332 25.6054 29.1174 26.4897 30.2043 26.4897H42.0288C43.1156 26.4897 43.9999 25.6055 43.9999 24.5185V19.4815C43.9999 18.3945 43.1156 17.5103 42.0288 17.5103Z" fill="black"/>
<path d="M42.0288 30.4335H30.2043C29.1174 30.4335 28.2332 31.3177 28.2332 32.4046V37.4418C28.2332 38.5286 29.1174 39.4129 30.2043 39.4129H42.0288C43.1156 39.4129 43.9999 38.5287 43.9999 37.4418V32.4046C43.9999 31.3177 43.1156 30.4335 42.0288 30.4335ZM42.7097 37.4417C42.7097 37.8171 42.4042 38.1226 42.0288 38.1226H30.2043C29.8288 38.1226 29.5234 37.8171 29.5234 37.4417V32.4045C29.5234 32.0291 29.8288 31.7237 30.2043 31.7237H42.0288C42.4042 31.7237 42.7097 32.0291 42.7097 32.4045V37.4417Z" fill="black"/>
<path d="M38.697 21.3873C39.0533 21.3873 39.3421 21.0984 39.3421 20.7421C39.3421 20.3858 39.0533 20.097 38.697 20.097H33.536C33.1797 20.097 32.8909 20.3858 32.8909 20.7421C32.8909 21.0984 33.1797 21.3873 33.536 21.3873H38.697Z" fill="#4200FF"/>
<path d="M31.0417 23.2578C31.0417 23.6141 31.3306 23.9029 31.6869 23.9029H40.5465C40.9028 23.9029 41.1917 23.6141 41.1917 23.2578C41.1917 22.9015 40.9028 22.6127 40.5465 22.6127H31.6868C31.3305 22.6127 31.0417 22.9015 31.0417 23.2578Z" fill="#4200FF"/>
<path d="M33.536 8.46415H38.697C39.0533 8.46415 39.3421 8.17532 39.3421 7.81902C39.3421 7.46273 39.0533 7.17389 38.697 7.17389H33.536C33.1797 7.17389 32.8909 7.46273 32.8909 7.81902C32.8909 8.17532 33.1797 8.46415 33.536 8.46415Z" fill="#4200FF"/>
<path d="M40.5464 9.68964H31.6866C31.3303 9.68964 31.0415 9.97847 31.0415 10.3348C31.0415 10.6911 31.3303 10.9799 31.6866 10.9799H40.5463C40.9026 10.9799 41.1914 10.6911 41.1914 10.3348C41.1915 9.97847 40.9027 9.68964 40.5464 9.68964Z" fill="#4200FF"/>
<path d="M33.536 34.3103H38.697C39.0533 34.3103 39.3421 34.0215 39.3421 33.6652C39.3421 33.3089 39.0533 33.0201 38.697 33.0201H33.536C33.1797 33.0201 32.8909 33.3089 32.8909 33.6652C32.8909 34.0215 33.1797 34.3103 33.536 34.3103Z" fill="#4200FF"/>
<path d="M40.5464 35.5358H31.6866C31.3303 35.5358 31.0415 35.8247 31.0415 36.181C31.0415 36.5373 31.3303 36.8261 31.6866 36.8261H40.5463C40.9026 36.8261 41.1914 36.5373 41.1914 36.181C41.1915 35.8247 40.9027 35.5358 40.5464 35.5358Z" fill="#4200FF"/>
</g>
<defs>
<clipPath id="clip0">
<rect width="44" height="44" fill="white"/>
</clipPath>
</defs>
</svg>
