<svg xmlns="http://www.w3.org/2000/svg" viewBox="0 0 50 50"><defs><style>.cls-1{fill:#fff;}</style></defs><g id="Layer_2" data-name="Layer 2"><g id="Layer_1-2" data-name="Layer 1"><g id="linkedin"><g id="circle"><circle cx="25" cy="25" r="24"/><path class="cls-1" d="M25,2A23,23,0,1,1,2,25,23,23,0,0,1,25,2m0-2A25,25,0,1,0,50,25,25,25,0,0,0,25,0Z"/></g><g id="logo"><path class="cls-1" d="M29.47,21.72A3.87,3.87,0,0,0,26,23.64h-.06V22H22.4V33.88h3.68V28c0-1.55.29-3,2.21-3s1.91,1.76,1.91,3.14v5.77h3.68V27.37C33.88,24.18,33.2,21.72,29.47,21.72Z"/><rect class="cls-1" x="16.41" y="22.02" width="3.68" height="11.86"/><path class="cls-1" d="M18.25,16.12a2.14,2.14,0,1,0,2.13,2.13A2.13,2.13,0,0,0,18.25,16.12Z"/></g></g></g></g></svg>