<svg width="52" height="52" viewBox="0 0 52 52" fill="none" xmlns="http://www.w3.org/2000/svg">
<circle cx="26" cy="26" r="25" stroke="white" stroke-width="2"/>
<path d="M21.0296 35H17.2977V22.9824H21.0296V35ZM19.1614 21.3431C17.9682 21.3431 17 20.3544 17 19.1613C17 18.5881 17.2277 18.0383 17.633 17.633C18.0384 17.2277 18.5881 17 19.1614 17C19.7346 17 20.2843 17.2277 20.6897 17.633C21.095 18.0383 21.3227 18.5881 21.3227 19.1613C21.3227 20.3544 20.3545 21.3431 19.1614 21.3431ZM34.9968 35H31.2732V29.15C31.2732 27.7556 31.2449 25.9679 29.333 25.9679C27.3928 25.9679 27.0951 27.4824 27.0951 29.0497V35H23.3671V22.9824H26.946V24.6217H26.9981C27.4963 23.6774 28.7133 22.6809 30.5288 22.6809C34.3057 22.6809 35 25.1681 35 28.3985V35H34.9968Z" fill="white"/>
</svg>
