<svg width="72" height="16" viewBox="0 0 72 16" fill="none" xmlns="http://www.w3.org/2000/svg">
<path d="M6.56 15L3.932 10.23H3.194V15H0.116V2.364H5.282C6.278 2.364 7.124 2.538 7.82 2.886C8.528 3.234 9.056 3.714 9.404 4.326C9.752 4.926 9.926 5.598 9.926 6.342C9.926 7.182 9.686 7.932 9.206 8.592C8.738 9.252 8.042 9.72 7.118 9.996L10.034 15H6.56ZM3.194 8.052H5.102C5.666 8.052 6.086 7.914 6.362 7.638C6.65 7.362 6.794 6.972 6.794 6.468C6.794 5.988 6.65 5.61 6.362 5.334C6.086 5.058 5.666 4.92 5.102 4.92H3.194V8.052ZM11.2462 9.96C11.2462 8.928 11.4382 8.022 11.8222 7.242C12.2182 6.462 12.7522 5.862 13.4242 5.442C14.0962 5.022 14.8462 4.812 15.6742 4.812C16.3822 4.812 17.0002 4.956 17.5282 5.244C18.0682 5.532 18.4822 5.91 18.7702 6.378V4.956H21.8482V15H18.7702V13.578C18.4702 14.046 18.0502 14.424 17.5102 14.712C16.9822 15 16.3642 15.144 15.6562 15.144C14.8402 15.144 14.0962 14.934 13.4242 14.514C12.7522 14.082 12.2182 13.476 11.8222 12.696C11.4382 11.904 11.2462 10.992 11.2462 9.96ZM18.7702 9.978C18.7702 9.21 18.5542 8.604 18.1222 8.16C17.7022 7.716 17.1862 7.494 16.5742 7.494C15.9622 7.494 15.4402 7.716 15.0082 8.16C14.5882 8.592 14.3782 9.192 14.3782 9.96C14.3782 10.728 14.5882 11.34 15.0082 11.796C15.4402 12.24 15.9622 12.462 16.5742 12.462C17.1862 12.462 17.7022 12.24 18.1222 11.796C18.5542 11.352 18.7702 10.746 18.7702 9.978ZM28.593 12.12L30.771 4.956H34.047L30.483 15H26.685L23.121 4.956H26.415L28.593 12.12ZM36.8906 3.912C36.3506 3.912 35.9066 3.756 35.5586 3.444C35.2226 3.12 35.0546 2.724 35.0546 2.256C35.0546 1.776 35.2226 1.38 35.5586 1.068C35.9066 0.743999 36.3506 0.581999 36.8906 0.581999C37.4186 0.581999 37.8506 0.743999 38.1866 1.068C38.5346 1.38 38.7086 1.776 38.7086 2.256C38.7086 2.724 38.5346 3.12 38.1866 3.444C37.8506 3.756 37.4186 3.912 36.8906 3.912ZM38.4206 4.956V15H35.3426V4.956H38.4206ZM49.0376 15.126C48.1136 15.126 47.2856 14.976 46.5536 14.676C45.8216 14.376 45.2336 13.932 44.7896 13.344C44.3576 12.756 44.1296 12.048 44.1056 11.22H47.3816C47.4296 11.688 47.5916 12.048 47.8676 12.3C48.1436 12.54 48.5036 12.66 48.9476 12.66C49.4036 12.66 49.7636 12.558 50.0276 12.354C50.2916 12.138 50.4236 11.844 50.4236 11.472C50.4236 11.16 50.3156 10.902 50.0996 10.698C49.8956 10.494 49.6376 10.326 49.3256 10.194C49.0256 10.062 48.5936 9.912 48.0296 9.744C47.2136 9.492 46.5476 9.24 46.0316 8.988C45.5156 8.736 45.0716 8.364 44.6996 7.872C44.3276 7.38 44.1416 6.738 44.1416 5.946C44.1416 4.77 44.5676 3.852 45.4196 3.192C46.2716 2.52 47.3816 2.184 48.7496 2.184C50.1416 2.184 51.2636 2.52 52.1156 3.192C52.9676 3.852 53.4236 4.776 53.4836 5.964H50.1536C50.1296 5.556 49.9796 5.238 49.7036 5.01C49.4276 4.77 49.0736 4.65 48.6416 4.65C48.2696 4.65 47.9696 4.752 47.7416 4.956C47.5136 5.148 47.3996 5.43 47.3996 5.802C47.3996 6.21 47.5916 6.528 47.9756 6.756C48.3596 6.984 48.9596 7.23 49.7756 7.494C50.5916 7.77 51.2516 8.034 51.7556 8.286C52.2716 8.538 52.7156 8.904 53.0876 9.384C53.4596 9.864 53.6456 10.482 53.6456 11.238C53.6456 11.958 53.4596 12.612 53.0876 13.2C52.7276 13.788 52.1996 14.256 51.5036 14.604C50.8076 14.952 49.9856 15.126 49.0376 15.126ZM61.1378 12.39V15H59.5718C58.4558 15 57.5858 14.73 56.9618 14.19C56.3378 13.638 56.0258 12.744 56.0258 11.508V7.512H54.8018V4.956H56.0258V2.508H59.1038V4.956H61.1198V7.512H59.1038V11.544C59.1038 11.844 59.1758 12.06 59.3198 12.192C59.4638 12.324 59.7038 12.39 60.0398 12.39H61.1378ZM64.4003 3.912C63.8603 3.912 63.4163 3.756 63.0683 3.444C62.7323 3.12 62.5643 2.724 62.5643 2.256C62.5643 1.776 62.7323 1.38 63.0683 1.068C63.4163 0.743999 63.8603 0.581999 64.4003 0.581999C64.9283 0.581999 65.3603 0.743999 65.6963 1.068C66.0443 1.38 66.2183 1.776 66.2183 2.256C66.2183 2.724 66.0443 3.12 65.6963 3.444C65.3603 3.756 64.9283 3.912 64.4003 3.912ZM65.9303 4.956V15H62.8523V4.956H65.9303ZM71.2389 1.68V15H68.1609V1.68H71.2389Z" fill="#BCBCBC"/>
</svg>
