<svg width="68" height="68" viewBox="0 0 68 68" fill="none" xmlns="http://www.w3.org/2000/svg">
<path d="M22.2082 60.7092H64.4287C66.3603 60.7092 67.9241 62.273 67.9241 64.2046C67.9241 66.1363 66.3603 67.7 64.4287 67.7H22.2082C20.2765 67.7 18.7128 66.1363 18.7128 64.2046C18.7128 62.273 20.2765 60.7092 22.2082 60.7092Z" fill="black"/>
<path d="M3.9954 30.3545H64.4287C66.3603 30.3545 67.9241 31.9182 67.9241 33.8499C67.9241 35.7816 66.3603 37.3453 64.4287 37.3453H3.9954C2.06374 37.3453 0.500015 35.7816 0.500015 33.8499C0.500015 31.9182 2.06374 30.3545 3.9954 30.3545Z" fill="black"/>
<path d="M22.2082 0H64.4287C66.3603 0 67.9241 1.56372 67.9241 3.49538C67.9241 5.42703 66.3603 6.99076 64.4287 6.99076H22.2082C20.2765 6.99076 18.7128 5.42703 18.7128 3.49538C18.7128 1.56372 20.2765 0 22.2082 0Z" fill="black"/>
</svg>
