<?xml version="1.0" encoding="utf-8"?>
<!-- Generator: Adobe Illustrator 24.3.0, SVG Export Plug-In . SVG Version: 6.00 Build 0)  -->
<svg version="1.1" id="Capa_1" xmlns="http://www.w3.org/2000/svg" xmlns:xlink="http://www.w3.org/1999/xlink" x="0px" y="0px"
	 viewBox="0 0 512 512" style="enable-background:new 0 0 512 512;" xml:space="preserve">
<style type="text/css">
	.st0{fill:#FFFFFF;}
</style>
<path class="st0" d="M130.2,138.3l-44.4,3.4c-12.3,1-23.3,7.4-30.2,17.7L4.6,236.8c-5.2,7.8-6,17.6-2.2,26.2
	c3.8,8.6,11.6,14.6,20.9,16l40.6,6.3C73.4,234.9,96.1,184.6,130.2,138.3L130.2,138.3z"/>
<path class="st0" d="M226.7,448.1l6.3,40.6c1.4,9.3,7.4,17.1,16,20.9c3.6,1.6,7.4,2.4,11.1,2.4c5.3,0,10.5-1.5,15.1-4.6l77.4-51.2
	c10.3-6.8,16.8-17.8,17.7-30.2l3.4-44.4C327.4,415.9,277.1,438.6,226.7,448.1L226.7,448.1z"/>
<path class="st0" d="M211.4,420c1.4,0,2.8-0.1,4.2-0.4c21.1-3.5,41.5-9.5,60.9-17.3L109.6,235.4c-7.8,19.4-13.7,39.8-17.3,60.9
	c-1.4,8.3,1.4,16.8,7.4,22.8l93.1,93.1C197.8,417.2,204.5,420,211.4,420z"/>
<path class="st0" d="M471.2,227c40.8-79,42.4-162.4,40.2-201.6C510.7,12,500,1.3,486.6,0.6C480.2,0.3,472.6,0,464.1,0
	c-43.8,0-113,6.6-179.1,40.8c-52.5,27.2-121.4,87-162.1,165.7c0.5,0.4,0.9,0.8,1.4,1.2l180,180c0.4,0.4,0.8,0.9,1.2,1.4
	C384.2,348.4,444,279.5,471.2,227L471.2,227z M297.7,108.2c29.2-29.2,76.8-29.2,106.1,0c14.2,14.2,22,33,22,53s-7.8,38.9-22,53
	c-14.6,14.6-33.8,21.9-53,21.9c-19.2,0-38.4-7.3-53-21.9c-14.2-14.2-22-33-22-53S283.5,122.4,297.7,108.2L297.7,108.2z"/>
<path class="st0" d="M318.9,193.1c17.5,17.5,46.1,17.5,63.6,0c8.5-8.5,13.2-19.8,13.2-31.8s-4.7-23.3-13.2-31.8
	c-8.8-8.8-20.3-13.2-31.8-13.2c-11.5,0-23,4.4-31.8,13.2c-8.5,8.5-13.2,19.8-13.2,31.8S310.4,184.6,318.9,193.1L318.9,193.1z"/>
<path class="st0" d="M15.3,421.9c3.8,0,7.7-1.5,10.6-4.4l49-49c5.9-5.9,5.9-15.4,0-21.2c-5.9-5.9-15.4-5.9-21.2,0l-49,49
	c-5.9,5.9-5.9,15.4,0,21.2C7.6,420.5,11.5,421.9,15.3,421.9z"/>
<path class="st0" d="M119.8,392.2c-5.9-5.9-15.4-5.9-21.2,0L4.4,486.4c-5.9,5.9-5.9,15.4,0,21.2c2.9,2.9,6.8,4.4,10.6,4.4
	s7.7-1.5,10.6-4.4l94.2-94.2C125.6,407.6,125.6,398.1,119.8,392.2L119.8,392.2z"/>
<path class="st0" d="M143.4,437.1l-49,49c-5.9,5.9-5.9,15.4,0,21.2c2.9,2.9,6.8,4.4,10.6,4.4s7.7-1.5,10.6-4.4l49-49
	c5.9-5.9,5.9-15.4,0-21.2C158.8,431.3,149.3,431.3,143.4,437.1L143.4,437.1z"/>
</svg>
