<?xml version="1.0" encoding="utf-8"?>
<!-- Generator: Adobe Illustrator 24.3.0, SVG Export Plug-In . SVG Version: 6.00 Build 0)  -->
<svg version="1.1" id="Layer_1" xmlns="http://www.w3.org/2000/svg" xmlns:xlink="http://www.w3.org/1999/xlink" x="0px" y="0px"
	 viewBox="0 0 65 45" style="enable-background:new 0 0 65 45;" xml:space="preserve">
<style type="text/css">
	.st0{fill-rule:evenodd;clip-rule:evenodd;fill:#FFFFFF;}
</style>
<desc>Created with Sketch.</desc>
<g id="_x30_4---site-2020">
	<g id="_x30_1.2-homepage-mobile" transform="translate(-175.000000, -75.000000)">
		<g id="_x2F__x2F_-Nav" transform="translate(0.000000, 62.000000)">
			<g id="_x2F_-Logo" transform="translate(175.000000, 13.000000)">
				<path id="Fill-1" class="st0" d="M18.7,43.5c-1.3,0-2.5-1.1-2.5-2.6c0-1.5,1.1-2.5,2.5-2.5c1.4,0,2.5,1.1,2.5,2.5
					C21.2,42.4,20.1,43.5,18.7,43.5L18.7,43.5z M18.7,37.2c-2.1,0-3.9,1.6-3.9,3.7c0,2.2,1.7,3.7,3.9,3.7c2.1,0,3.9-1.6,3.9-3.7
					C22.6,38.8,20.8,37.2,18.7,37.2L18.7,37.2z M11.4,39.2L11.4,39.2c0,0,0-0.2,0-0.5v-1.2h-1.3v7.1h1.4v-2.9c0-0.4,0-0.9,0.2-1.3
					c0.3-1.1,1.1-1.7,2-1.7c0.2,0,0.4,0,0.4,0v-1.3c0,0-0.2,0-0.4,0C12.6,37.3,11.8,38.1,11.4,39.2L11.4,39.2z M5.2,39.6h-2v-3.8h2
					c1.2,0,1.9,0.7,1.9,1.9S6.4,39.6,5.2,39.6L5.2,39.6z M5.4,34.6H1.8v9.9h1.4v-3.7h2.2c1.8,0,3.1-1.3,3.1-3.1
					C8.6,35.8,7.3,34.6,5.4,34.6L5.4,34.6z M58.5,40.1c0.2-1.2,1-1.8,2.1-1.8c0.9,0,1.7,0.6,1.7,1.8H58.5z M63.7,40.6
					c0-1.8-1.1-3.3-3.1-3.3c-2,0-3.6,1.5-3.6,3.7c0,2.1,1.5,3.7,3.8,3.7c1.7,0,2.8-1,2.8-1l-0.6-1c0,0-0.9,0.8-2.1,0.8
					c-1.3,0-2.4-0.8-2.5-2.3h5.2C63.6,41.2,63.7,40.8,63.7,40.6L63.7,40.6z M53.4,42.2c-0.1,0.4-0.2,1-0.3,1h0c0,0-0.1-0.6-0.2-1
					l-1.7-4.8h-1.5l2.7,7.1H54l2.6-7.1h-1.4L53.4,42.2z M46.9,44.5h1.4v-7.1h-1.4V44.5z M46.9,36h1.4v-1.4h-1.4V36z M43,41.8v-3.2
					h1.7v-1.1H43v-2.1h-1.3v2.1h-1v1.1h0.9v3.3c0,2.4,1.8,2.7,2.7,2.7c0.3,0,0.5,0,0.5,0v-1.2c0,0-0.1,0-0.3,0
					C44,43.4,43,43.2,43,41.8L43,41.8z M36.8,43.5c-1.5,0-2.5-1.1-2.5-2.6c0-1.5,1-2.5,2.5-2.5c1.2,0,2,0.8,2,0.8l0.7-1
					c0,0-0.9-1-2.7-1c-2.2,0-3.8,1.6-3.8,3.7c0,2.1,1.6,3.7,3.8,3.7c1.9,0,2.9-1.1,2.9-1.1l-0.6-1C39,42.6,38.1,43.5,36.8,43.5
					L36.8,43.5z M26.2,40.5l1.1-3.1c0.2-0.5,0.4-1.4,0.4-1.4h0c0,0,0.2,0.9,0.4,1.4l1.1,3.1H26.2z M27,34.6l-3.6,9.9h1.4l1-2.9h3.8
					l1,2.9h1.5l-3.6-9.9H27z"/>
				<path id="Fill-1_1_" class="st0" d="M60.1,4.7C54.3-1,44.9-1,39.2,4.7l-3.5,3.4l-3.5,3.5l-2.7,2.6L28.7,15l-1.7,1.6l-5.3,5.2
					c-3.8,3.8-10.1,3.8-13.9,0s-3.8-10,0-13.8s10.1-3.8,13.9,0l4.4,4.4l2-2l1.4-1.4l-4.4-4.4C19.5-1,10.1-1,4.3,4.7
					c-5.8,5.7-5.8,14.9,0,20.6c5.8,5.7,15.1,5.7,20.9,0l5.3-5.2l1.7-1.6l2.7-2.6l0.8-0.8l3.5-3.5l3.5-3.4c3.8-3.8,10.1-3.8,13.9,0
					c3.8,3.8,3.8,10,0,13.8c-3.8,3.8-10.1,3.8-13.9,0l-4.4-4.4l-2,2l-1.4,1.4l4.4,4.4c5.8,5.7,15.1,5.7,20.9,0
					C65.8,19.6,65.8,10.4,60.1,4.7"/>
			</g>
		</g>
	</g>
</g>
</svg>
