<svg width="26" height="19" viewBox="0 0 26 19" fill="none" xmlns="http://www.w3.org/2000/svg">
<path d="M25.9526 6.3442C25.9389 6.30279 25.9209 6.26291 25.8989 6.2252V6.20015C25.8711 6.15775 25.8382 6.11884 25.8009 6.08428L25.763 6.0467C25.7288 6.01892 25.6917 5.99478 25.6524 5.97468H25.6334L13.2715 0.0623607C13.1857 0.0213175 13.0918 0 12.9966 0C12.9013 0 12.8074 0.0213175 12.7216 0.0623607L0.356519 5.97468C0.249666 6.02596 0.15955 6.10604 0.0964964 6.20573C0.0334425 6.30542 0 6.4207 0 6.53835C0 6.65601 0.0334425 6.77128 0.0964964 6.87097C0.15955 6.97067 0.249666 7.05074 0.356519 7.10203L4.14853 8.91831V16.0676C4.14831 16.4681 4.27728 16.8583 4.51661 17.1811C4.75593 17.5039 5.0931 17.7424 5.47889 17.8619C10.3683 19.3794 15.609 19.3794 20.4984 17.8619C20.8872 17.7452 21.2278 17.5078 21.4702 17.1848C21.7125 16.8617 21.8438 16.4701 21.8446 16.0676V8.91831L24.736 7.53731V15.4976C24.736 15.6637 24.8026 15.8231 24.9211 15.9405C25.0396 16.058 25.2004 16.1239 25.368 16.1239C25.5356 16.1239 25.6964 16.058 25.8149 15.9405C25.9334 15.8231 26 15.6637 26 15.4976V6.53835C25.9993 6.48544 25.9919 6.43283 25.9779 6.38178L25.9526 6.3442ZM20.5806 16.0676C20.5807 16.201 20.5379 16.3309 20.4583 16.4385C20.3787 16.5461 20.2666 16.6257 20.1382 16.6657C15.4935 18.1069 10.5154 18.1069 5.87074 16.6657C5.73939 16.6285 5.62375 16.5501 5.54114 16.4422C5.45854 16.3344 5.41342 16.203 5.41253 16.0676V9.52269L12.7216 13.0175C12.8074 13.0585 12.9013 13.0798 12.9966 13.0798C13.0918 13.0798 13.1857 13.0585 13.2715 13.0175L20.5806 9.52269V16.0676ZM12.9966 11.7555L2.08504 6.53835L12.9966 1.32123L23.9081 6.53835L12.9966 11.7555Z" fill="black"/>
</svg>
