<?xml version="1.0" encoding="utf-8"?>
<!-- Generator: Adobe Illustrator 24.3.0, SVG Export Plug-In . SVG Version: 6.00 Build 0)  -->
<svg version="1.1" id="Layer_1" xmlns="http://www.w3.org/2000/svg" xmlns:xlink="http://www.w3.org/1999/xlink" x="0px" y="0px"
	 viewBox="0 0 2500 1638.2" style="enable-background:new 0 0 2500 1638.2;" xml:space="preserve">
<style type="text/css">
	.st0{fill-rule:evenodd;clip-rule:evenodd;}
</style>
<g>
	<path class="st0" d="M1606.7,305.9v-62.3h-249.2v342h249.2v-56.4h-179.9v-92.9h157.5v-61.1h-157.5v-69.3H1606.7z M1537.4,620.9
		v131.6H1401V620.9h-70.5v340.9h70.5V809h136.4v152.8h69.3V620.9H1537.4L1537.4,620.9z M1606.7,1058.2v-61.1h-249.2v346.7h249.2
		v-62.3h-179.9v-91.7h157.5v-56.4h-157.5v-75.3L1606.7,1058.2L1606.7,1058.2z M1317.6,243.6h-69.3v131.6h-136.3V243.6h-69.3v342
		h69.3V432.9h136.3v152.8h69.3V243.6z M744,243.6v62.3h105.8v279.7h69.3V305.9h105.8v-62.3H744z M525.4,611.5
		c-109.3,0-166.9,62.3-166.9,179.8c0,123.4,57.6,184.5,166.9,184.5s165.7-61.1,165.7-184.5C691.1,673.8,634.7,611.5,525.4,611.5z
		 M433.7,791.4c0-78.7,30.6-117.5,91.7-117.5c65.8,0,96.4,38.8,96.4,117.5c0,83.5-30.6,123.4-96.4,123.4
		C464.3,914.8,433.7,874.8,433.7,791.4z M258.6,620.9v240.9L122.2,620.9h-74v340.9H114V722l139.9,239.8h74V620.9H258.6z
		 M581.8,1138.1v-79.9h175.1v-61.1H512.5v346.7h69.3v-144.6h154v-61.1L581.8,1138.1L581.8,1138.1z M1304.7,682.1v-61.1h-279.8v61.1
		h104.6v279.8h70.5V682.1H1304.7L1304.7,682.1z M870.9,831.3c22.3,0,40,3.5,48.2,12.9l12.9,117.6h78.7v-8.2
		c-8.2-4.7-12.9-25.9-12.9-65.8c0-48.2-17.6-74-43.5-87c35.3-14.1,52.9-40,52.9-83.5c0-61.1-35.3-96.4-109.3-96.4H726.4v340.9h70.5
		V831.3H870.9z M796.9,773.7v-91.7h87c35.3,0,52.9,12.9,52.9,43.5s-17.6,48.2-56.4,48.2L796.9,773.7L796.9,773.7z M919.1,997.1
		h-83.5l-122.2,346.7h74l27-75.2h126.9l21.2,75.2h75.2L919.1,997.1L919.1,997.1z M875.6,1075.8l43.5,136.4h-87L875.6,1075.8
		L875.6,1075.8z M1261.2,1111h69.3c-3.5-30.5-12.9-56.4-34.1-78.7c-30.5-25.9-65.8-43.5-114-43.5c-48.2,0-83.5,17.6-114,48.2
		c-25.9,30.5-43.5,74-43.5,131.6c0,122.2,51.7,183.3,152.8,183.3c88.2,0,136.3-43.5,152.8-126.9h-69.3c-9.4,39.9-40,61.1-78.8,61.1
		c-57.6,0-83.5-38.8-83.5-114c0-82.3,25.9-122.2,83.5-122.2C1221.2,1049.9,1243.5,1072.3,1261.2,1111L1261.2,1111z M389,1339.1h1.2
		H389z M390.2,1339.1c11.8,0,21.2-4.7,28.2-10.6c5.9-7.1,10.6-16.5,10.6-29.4c0-14.1-4.7-23.5-10.6-29.4c-7.1-5.9-16.5-9.4-28.2-9.4
		H389c-14.1,0-23.5,3.5-29.4,9.4c-5.9,5.9-9.4,15.3-9.4,29.4v1.1c0,11.8,3.5,21.2,9.4,28.2c5.9,5.9,15.3,10.6,29.4,10.6
		L390.2,1339.1L390.2,1339.1z M389,1348.5c-16.5,0-28.2-5.9-36.4-14.1c-8.2-8.2-11.8-20-11.8-34.1v-1.1c0-16.5,3.5-28.2,11.8-36.4
		c8.2-8.2,20-11.8,36.4-11.8h1.2c14.1,0,25.9,3.5,34.1,11.8c8.2,8.2,14.1,20,14.1,36.4c0,15.3-5.9,27-14.1,35.2
		c-9,9.1-21.3,14.2-34.1,14.1H389z M393.7,1294.4h1.2c4.7,0,7.1-2.4,7.1-8.2v-1.2c0,0-1.2,0-1.2-1.2c-1.2-1.2-3.5-1.2-7.1-1.2h-12.9
		v11.8L393.7,1294.4L393.7,1294.4L393.7,1294.4z M402,1302.7l9.4,11.8c1.2,2.3,0,4.7-1.2,5.9c-2.4,2.4-5.9,1.2-7.1,0l-11.8-16.5
		h-10.6v12.9c0,2.4-2.4,4.7-4.7,4.7s-4.7-2.4-4.7-4.7V1278c0-2.4,2.4-4.7,4.7-4.7h18.8c4.7,0,9.4,1.1,11.8,3.5
		c1.2,1.2,2.4,1.2,2.4,2.4c2.4,2.4,2.4,4.7,2.4,7.1C411.4,1295.6,409,1300.3,402,1302.7L402,1302.7z M1654.9,243.6
		c218.6,0,407.9,79.9,560.6,232.7c157.5,157.5,236.3,345.6,236.3,565.3v302.1h-319.7v-311.5c0-122.2-43.5-228-131.6-315
		c-21.2-22.3-43.5-40-69.3-57.6c-70.5-48.2-154-69.3-240.9-69.3h-35.3L1654.9,243.6L1654.9,243.6L1654.9,243.6z M2101.5,1343.8
		h-249.2v-240.9c0-39.9-12.9-70.5-39.9-96.4c-25.9-27-61.1-39.9-96.4-39.9h-61.1V620.9h35.3c91.7,0,170.4,25.9,240.9,78.7
		c17.6,8.2,35.3,25.9,48.2,38.8c83.5,83.5,122.2,179.8,122.2,293.8V1343.8z M1821.8,1343.8h-166.9V997.1h61.1
		c27,0,52.9,9.4,75.2,30.5c17.6,17.6,30.6,44.7,30.6,75.2V1343.8z"/>
</g>
</svg>
