<svg width="22" height="24" viewBox="0 0 22 24" fill="none" xmlns="http://www.w3.org/2000/svg">
<path d="M11 11.466C5.48599 11.466 1 15.3098 1 20.0347C1 22.2235 6.38687 23 11 23C15.6131 23 21 22.2235 21 20.0347C21 15.3098 16.514 11.466 11 11.466ZM11 22.1201C5.39474 22.1201 1.92524 21.0375 1.92524 20.0347C1.92524 15.7951 5.99617 12.3459 11 12.3459C16.0038 12.3459 20.0748 15.7951 20.0748 20.0347C20.0748 21.0375 16.6053 22.1201 11 22.1201V22.1201ZM15.9307 5.68909C15.9307 4.76168 15.6415 3.85509 15.0997 3.08397C14.5579 2.31286 13.7878 1.71184 12.8869 1.35694C11.9859 1.00203 10.9945 0.909172 10.0381 1.0901C9.08162 1.27103 8.20306 1.71762 7.5135 2.3734C6.82393 3.02918 6.35433 3.8647 6.16408 4.77429C5.97383 5.68388 6.07148 6.6267 6.44467 7.48352C6.81785 8.34034 7.44983 9.07267 8.26067 9.58792C9.07151 10.1032 10.0248 10.3782 11 10.3782C12.3072 10.3768 13.5605 9.88229 14.4849 9.00322C15.4092 8.12415 15.9292 6.93228 15.9307 5.68909ZM6.99458 5.68909C6.99458 4.9357 7.22949 4.19924 7.66961 3.57282C8.10973 2.94641 8.7353 2.45818 9.46719 2.16987C10.1991 1.88156 11.0044 1.80613 11.7814 1.95311C12.5584 2.10008 13.2721 2.46287 13.8323 2.9956C14.3924 3.52832 14.7739 4.20705 14.9285 4.94596C15.083 5.68486 15.0037 6.45076 14.7005 7.1468C14.3974 7.84283 13.884 8.43775 13.2253 8.8563C12.5666 9.27486 11.7922 9.49827 11 9.49827C9.93806 9.49713 8.91996 9.09544 8.16906 8.38133C7.41816 7.66721 6.99578 6.699 6.99458 5.68909H6.99458Z" fill="black" stroke="black" stroke-width="0.5"/>
</svg>
