<svg width="42" height="42" viewBox="0 0 42 42" fill="none" xmlns="http://www.w3.org/2000/svg">
<path d="M41.3 3.84998H0.7C0.313425 3.84998 0 4.1634 0 4.54998V29.75C0 30.1366 0.313425 30.45 0.7 30.45H7V37.45C7 37.8366 7.31342 38.15 7.7 38.15H11.9C12.2866 38.15 12.6 37.8366 12.6 37.45V30.45H41.3C41.6866 30.45 42 30.1366 42 29.75V4.54998C42 4.1634 41.6866 3.84998 41.3 3.84998ZM11.2 36.75H8.4V35.35H11.2V36.75ZM11.2 33.95H8.4V19.95H11.2V33.95ZM8.7619 18.55L9.8 16.1273L10.8381 18.55H8.7619ZM40.6 29.05H12.6V19.25C12.6 19.2402 12.5944 19.2318 12.5944 19.2213C12.5922 19.1407 12.5761 19.0611 12.5468 18.9861V18.9756L10.4468 14.0756C10.2944 13.7203 9.88277 13.5558 9.52752 13.7083C9.3625 13.779 9.23099 13.9106 9.1602 14.0756L7.0602 18.9756V18.9861C7.03089 19.0611 7.01479 19.1407 7.0126 19.2213C7.0126 19.2318 7.007 19.2402 7.007 19.25V29.05H1.4V5.24998H40.6V29.05Z" fill="black"/>
<path d="M30.7573 10.85C30.3744 8.17102 27.8923 6.30972 25.2133 6.69262C23.0577 7.00071 21.364 8.69436 21.0559 10.85H16.0999C15.7133 10.85 15.3999 11.1634 15.3999 11.55V21.35C15.3999 21.7366 15.7133 22.05 16.0999 22.05H25.8999C26.2865 22.05 26.5999 21.7366 26.5999 21.35V16.394C29.2789 16.0111 31.1402 13.529 30.7573 10.85ZM25.1999 20.65H16.7999V12.25H21.0559C21.3679 14.3962 23.0537 16.082 25.1999 16.394V20.65ZM25.1999 14.98C23.8263 14.6969 22.753 13.6236 22.4699 12.25H25.1999V14.98ZM26.5999 14.98V11.55C26.5999 11.1634 26.2865 10.85 25.8999 10.85H22.4699C22.8048 9.22155 24.2373 8.05211 25.8999 8.05001C27.8329 8.04808 29.4015 9.61346 29.4034 11.5465C29.4051 13.2123 28.2324 14.6485 26.5999 14.98Z" fill="black"/>
<path d="M34.181 21.5937C33.9428 21.2893 33.5028 21.2357 33.1983 21.4739C33.1775 21.4903 33.1575 21.5078 33.1386 21.5263V21.5235L27.8704 26.133L23.3757 24.2066C23.21 24.1354 23.0232 24.1308 22.8542 24.194L17.2542 26.294C16.892 26.429 16.7078 26.8322 16.8429 27.1945C16.9452 27.4688 17.2072 27.6504 17.4999 27.6499C17.5838 27.6497 17.6669 27.6347 17.7456 27.6058L23.0824 25.6038L27.7241 27.5932C27.9718 27.6994 28.2585 27.6539 28.4612 27.4763L34.0612 22.5763C34.3656 22.3382 34.4193 21.8982 34.181 21.5937Z" fill="#4200FF"/>
<path d="M13.3 10.15H3.50005C3.11347 10.15 2.80005 10.4634 2.80005 10.85C2.80005 11.2366 3.11347 11.55 3.50005 11.55H13.3C13.6866 11.55 14 11.2366 14 10.85C14 10.4634 13.6866 10.15 13.3 10.15Z" fill="#4200FF"/>
<path d="M38.4076 17.5L35.6076 12.6C35.3862 12.2645 34.9346 12.172 34.599 12.3934C34.5169 12.4476 34.4466 12.5179 34.3924 12.6L31.5924 17.5C31.3991 17.8348 31.5139 18.2629 31.8486 18.4562C31.9555 18.5179 32.0767 18.5503 32.2 18.55H37.8C38.1866 18.5508 38.5006 18.238 38.5014 17.8514C38.5017 17.728 38.4693 17.6068 38.4076 17.5ZM33.4061 17.15L35 14.3612L36.5939 17.15H33.4061Z" fill="#4200FF"/>
</svg>
